<svg width="500" height="500" viewBox="0 0 500 500" fill="none" xmlns="http://www.w3.org/2000/svg">
<path d="M151.591 204C139.497 204.403 128.046 209.543 119.706 218.311C111.365 227.079 106.805 238.773 107.006 250.872C107.208 262.972 112.156 274.507 120.784 282.992C129.412 291.477 141.028 296.232 153.129 296.232C165.23 296.232 176.846 291.477 185.474 282.992C194.102 274.507 199.05 262.972 199.252 250.872C199.453 238.773 194.893 227.079 186.553 218.311C178.212 209.543 166.761 204.403 154.667 204H151.591ZM216.172 204C204.078 204.403 192.626 209.543 184.286 218.311C175.946 227.079 171.385 238.773 171.587 250.872C171.789 262.972 176.737 274.507 185.365 282.992C193.992 291.477 205.609 296.232 217.71 296.232C229.811 296.232 241.427 291.477 250.055 282.992C258.683 274.507 263.631 262.972 263.832 250.872C264.034 238.773 259.473 227.079 251.133 218.311C242.793 209.543 231.342 204.403 219.247 204H216.172ZM280.753 204C268.658 204.403 257.207 209.543 248.867 218.311C240.527 227.079 235.966 238.773 236.168 250.872C236.369 262.972 241.317 274.507 249.945 282.992C258.573 291.477 270.189 296.232 282.29 296.232C294.391 296.232 306.008 291.477 314.635 282.992C323.263 274.507 328.211 262.972 328.413 250.872C328.615 238.773 324.054 227.079 315.714 218.311C307.374 209.543 295.922 204.403 283.828 204H280.753ZM345.333 204C333.239 204.403 321.788 209.543 313.447 218.311C305.107 227.079 300.547 238.773 300.748 250.872C300.95 262.972 305.898 274.507 314.526 282.992C323.154 291.477 334.77 296.232 346.871 296.232C358.972 296.232 370.588 291.477 379.216 282.992C387.844 274.507 392.792 262.972 392.994 250.872C393.195 238.773 388.635 227.079 380.294 218.311C371.954 209.543 360.503 204.403 348.409 204H345.333Z" stroke="black" stroke-width="10.7634"/>
</svg>
