<svg width="500" height="500" viewBox="0 0 500 500" fill="none" xmlns="http://www.w3.org/2000/svg">
<path d="M250 134C185.938 134 134 185.933 134 249.998C134 314.062 185.938 365.995 250 365.995C314.068 365.995 366 314.062 366 249.998C366 185.933 314.068 134 250 134ZM250 360.195C189.137 360.195 139.805 310.859 139.805 249.998C139.805 189.137 189.137 139.798 250 139.798C310.863 139.798 360.199 189.137 360.199 249.998C360.199 310.859 310.863 360.195 250 360.195V360.195Z" fill="black"/>
<path d="M360.199 249.998C360.199 310.859 310.863 360.195 250 360.195C189.137 360.195 139.805 310.859 139.805 249.998C139.805 189.138 189.137 139.799 250 139.799C310.863 139.799 360.199 189.138 360.199 249.998V249.998Z" fill="black"/>
<path d="M260.695 172.995H266.525V143.865H257.764L249.797 164.721H249.873L241.906 143.865H233.145V172.995H238.974V152.655L246.649 172.995H253.021L260.695 152.655V172.995Z" fill="white"/>
<path d="M338.696 192.055L342.935 197.145L318.32 209.506L313.346 203.481L322.889 189.095L322.833 189.022L306.955 195.819L301.929 189.834L318.528 167.855L322.771 172.944L312.378 186.941L328.458 179.769L333.009 185.229L323.054 199.75L338.696 192.055Z" fill="white"/>
<path d="M197.364 181.045C195.023 178.768 191.398 178.081 188 180.189C188.646 178.503 188.382 176.788 188.038 175.841C186.57 173.168 186.06 172.835 184.852 171.82C180.939 168.54 176.828 171.341 173.892 174.848L159.671 191.787L182.02 210.537L197.01 192.672C200.432 188.59 200.965 184.545 197.364 181.045V181.045ZM168.455 189.215L176.993 179.041C177.98 177.862 180.217 177.909 181.656 179.114C183.238 180.443 183.242 182.324 182.175 183.586L173.737 193.647L168.455 189.215ZM192.017 190.907L183.115 201.515L177.531 196.83L186.504 186.138C187.519 184.932 189.775 184.58 191.299 185.859C193.027 187.306 193.197 189.498 192.017 190.907V190.907Z" fill="white"/>
<path d="M178.58 249.998C178.58 210.553 210.557 178.575 250.001 178.575C289.449 178.575 321.422 210.553 321.422 249.998C321.422 289.443 289.449 321.419 250.001 321.419C210.557 321.419 178.58 289.443 178.58 249.998Z" fill="black"/>
<path d="M180.633 249.998C180.633 211.687 211.69 180.628 250.001 180.628C288.312 180.628 319.373 211.687 319.373 249.998C319.373 288.31 288.312 319.369 250.001 319.369C211.69 319.369 180.633 288.31 180.633 249.998Z" fill="white"/>
<path d="M180.524 249.998H250.001V180.522C211.628 180.522 180.524 211.626 180.524 249.998Z" fill="white"/>
<path d="M250 249.999V319.476C288.373 319.476 319.477 288.366 319.477 249.999H250Z" fill="white"/>
<path d="M251.732 179.944V179.444H251.232H248.768H248.268V179.944V248.264H179.948H179.448V248.764V251.228V251.728H179.948H248.268V320.051V320.551H248.768H251.232H251.732V320.051V251.728H320.053H320.553V251.228V248.764V248.264H320.053H251.732V179.944Z" fill="black" stroke="black"/>
</svg>
