<svg width="500" height="500" viewBox="0 0 500 500" fill="none" xmlns="http://www.w3.org/2000/svg">
<path d="M184.15 316.7V327.75C184.15 330.881 183.093 333.503 180.979 335.618C178.857 337.739 176.231 338.8 173.1 338.8H162.05C158.919 338.8 156.297 337.739 154.182 335.618C152.061 333.503 151 330.881 151 327.75V239.35L174.205 173.05C175.31 169.735 177.292 167.065 180.15 165.039C183.001 163.013 186.176 162 189.675 162H311.225C314.724 162 317.903 163.013 320.761 165.039C323.612 167.065 325.59 169.735 326.695 173.05L349.9 239.35V327.75C349.9 330.881 348.839 333.503 346.718 335.618C344.603 337.739 341.981 338.8 338.85 338.8H327.8C324.669 338.8 322.047 337.739 319.932 335.618C317.811 333.503 316.75 330.881 316.75 327.75V316.7H184.15ZM181.94 217.25H318.96L307.357 184.1H193.542L181.94 217.25ZM173.1 294.6H327.8V239.35H173.1V294.6Z" fill="black"/>
</svg>
