<svg width="500" height="500" viewBox="0 0 500 500" fill="none" xmlns="http://www.w3.org/2000/svg">
<path d="M249.999 207C185.613 207 134 226.299 134 250.496C134 274.546 186.038 293.994 249.999 293.994C313.962 293.994 366 274.481 366 250.496C366 226.512 313.962 207 249.999 207Z" fill="black"/>
<path d="M295.689 259.71C295.721 259.909 295.982 260.1 296.235 260.19C296.329 260.221 296.374 260.284 296.277 260.495C295.555 262.043 294.89 262.936 293.985 264.281C293.152 265.524 292.214 266.494 291.078 267.427C289.365 268.844 286.985 270.388 285.018 269.35C284.144 268.897 283.766 267.674 283.783 266.684C283.825 263.9 285.063 261.042 287.35 258.233C290.138 254.801 293.22 253.021 295.243 253.994C297.335 254.992 296.667 257.415 295.73 259.317C295.658 259.464 295.658 259.589 295.689 259.709M318.146 238.018C318.296 237.752 318.138 237.558 317.802 237.558C316.054 237.558 313.761 237.562 311.94 237.562C311.506 237.562 311.282 237.614 311.077 238.019C310.405 239.307 302.213 251.585 300.688 253.969C300.431 254.332 300.117 254.281 300.081 253.865C299.926 252.449 298.703 250.821 296.777 250.042C295.308 249.446 293.873 249.339 292.38 249.537C289.686 249.899 287.285 251.32 285.175 252.923C281.994 255.341 279.249 258.476 275.707 260.791C273.773 262.052 271.124 263.152 269.352 261.51C267.748 260.023 267.929 256.721 270.383 254.167C270.642 253.899 270.952 254.125 270.903 254.363C270.672 255.518 270.955 256.666 271.833 257.472C272.903 258.432 274.435 258.54 275.747 257.899C277.294 257.133 278.204 255.652 278.469 253.972C278.878 251.365 276.872 249.066 274.361 248.882C272.322 248.739 270.366 249.448 268.46 251.021C267.504 251.814 266.962 252.399 266.135 253.575C265.934 253.864 265.625 253.893 265.634 253.466C265.728 250.128 264.349 248.251 261.59 248.19C259.448 248.138 257.16 249.3 255.377 250.722C253.422 252.292 251.713 254.373 249.88 256.328C249.652 256.568 249.454 256.557 249.389 256.09C249.337 253.879 248.778 251.737 247.755 250.216C247.393 249.687 246.63 249.426 245.99 249.783C245.694 249.944 244.666 250.418 243.917 251.021C243.545 251.327 243.4 251.77 243.565 252.338C244.553 255.641 244.336 259.397 242.995 262.569C241.764 265.475 239.373 268.095 236.562 268.982C234.71 269.569 232.785 269.282 231.593 267.64C229.957 265.374 230.618 261.433 233.057 258.161C235.209 255.28 238.322 253.45 241.428 252.271C241.793 252.13 241.869 251.896 241.765 251.586C241.597 251.075 241.327 250.38 241.218 250.062C240.933 249.304 240.135 249.182 239.162 249.287C236.905 249.55 234.87 250.323 232.859 251.4C227.594 254.219 224.955 259.675 223.798 262.595C223.241 263.997 222.765 264.872 222.149 265.647C221.319 266.691 220.277 267.64 218.372 269.313C218.2 269.467 218.071 269.787 218.216 270.084C218.41 270.487 219.401 271.886 219.681 272.011C219.991 272.164 220.351 271.949 220.495 271.847C221.828 270.943 223.423 269.511 224.204 268.54C224.478 268.207 224.759 268.347 224.904 268.852C225.633 271.451 227.54 273.572 230.177 274.46C235.005 276.088 240.012 273.732 243.791 269.629C246.193 267.022 247.06 265.345 247.981 264.205C249.541 262.272 252.619 257.947 256.285 255.17C257.629 254.146 259.22 253.365 260.02 253.884C260.662 254.3 260.87 255.267 259.839 257.141C256.102 263.966 250.603 271.985 249.594 273.929C249.409 274.266 249.573 274.532 249.924 274.532C251.88 274.522 253.819 274.527 255.594 274.527C255.89 274.517 256.022 274.378 256.17 274.169C259.038 269.679 261.738 265.406 264.631 260.988C264.793 260.727 264.942 260.925 264.948 261.04C265.011 262.065 265.26 263.467 265.869 264.387C266.963 266.089 268.512 266.821 270.231 266.832C271.599 266.853 272.291 266.64 273.766 266.089C274.966 265.644 275.93 265.06 276.669 264.531C277.101 264.23 277.177 264.733 277.166 264.81C276.502 268.375 277.322 272.598 280.864 274.349C285.104 276.44 289.761 273.501 292.441 270.849C292.704 270.594 292.985 270.621 293.012 271.172C293.074 272.185 293.526 273.386 294.364 274.227C296.61 276.481 301.142 275.588 305.69 272.068C308.61 269.814 311.665 266.63 314.425 263.258C314.529 263.127 314.603 262.917 314.404 262.705C313.984 262.265 313.376 261.762 312.959 261.374C312.769 261.212 312.49 261.259 312.33 261.38C309.501 264.07 306.955 267.138 303.275 269.676C302.033 270.542 300.055 271.241 299.166 270.038C298.82 269.571 298.859 268.925 299.198 268.078C300.271 265.402 317.26 239.536 318.142 238.01" fill="white"/>
<path d="M238.214 241.14C238.286 241.524 238.436 241.599 238.61 241.567C239.476 241.394 240.423 240.682 240.983 239.857C241.494 239.109 241.733 238.029 241.226 237.596C240.774 237.207 240.037 237.317 239.491 237.8C238.404 238.761 238.073 240.124 238.213 241.141M194.913 274.436C188.578 274.478 182.998 270.566 182.357 263.789C182.001 260.034 183.063 256.687 185.188 253.93C187.074 251.473 190.264 249.432 192.965 248.933C193.844 248.772 195.025 248.871 195.513 249.456C196.279 250.347 196.059 251.326 195.293 251.717C193.233 252.769 190.753 254.57 189.526 257.029C188.531 259.037 188.33 261.456 189.85 263.76C192.394 267.601 199.485 267.706 206.078 261.581C207.711 260.082 209.172 258.642 210.657 256.936C213.561 253.616 214.527 252.406 218.387 247.051C218.429 246.989 218.449 246.908 218.429 246.869C218.397 246.796 218.346 246.786 218.23 246.775C215.654 246.848 213.407 247.615 211.223 249.247C210.594 249.705 209.689 249.641 209.293 249.037C208.852 248.354 209.169 247.466 209.894 246.964C213.407 244.521 217.244 244.078 221.163 243.416C221.16 243.416 221.435 243.427 221.659 243.132C223.268 241.067 224.482 239.205 226.197 237.117C227.925 234.999 230.157 233.053 231.863 231.592C234.243 229.545 235.769 228.857 237.321 228.012C237.73 227.799 237.269 227.543 237.144 227.543C228.483 225.915 219.479 223.809 210.877 226.993C204.92 229.217 202.309 233.941 203.565 237.098C204.458 239.337 207.403 239.701 210.16 238.352C212.45 237.23 214.57 235.422 216.072 233.094C216.913 231.801 218.684 232.734 217.727 234.978C215.209 240.895 210.4 245.588 204.543 245.786C199.557 245.948 196.341 242.28 196.351 237.756C196.372 228.832 206.307 222.953 216.748 222.074C229.322 221.035 241.232 224.384 253.716 225.899C263.282 227.057 272.453 227.081 282.067 224.872C283.204 224.626 284.001 225.351 283.927 226.499C283.834 228.158 282.548 229.756 279.382 231.483C275.78 233.459 272.013 234.058 268.078 234.09C258.563 234.173 249.7 230.46 240.528 228.468C240.539 228.869 240.645 229.347 240.308 229.601C235.228 233.348 230.636 237.153 227.56 242.498C227.457 242.622 227.508 242.739 227.692 242.726C230.362 242.584 232.764 242.516 235.257 242.316C235.693 242.275 235.709 242.171 235.671 241.854C235.45 240.011 235.988 237.911 237.609 236.466C239.267 234.979 241.344 234.809 242.721 235.88C244.286 237.1 244.147 239.293 243.291 240.938C242.42 242.607 240.98 243.5 239.599 243.933C239.599 243.933 239.308 243.995 239.352 244.259C239.404 244.68 241.288 245.723 241.449 246.001C241.605 246.266 241.522 246.676 241.239 246.99C241.04 247.218 240.727 247.432 240.328 247.425C240.005 247.418 239.809 247.307 239.396 247.084C238.551 246.626 237.496 245.874 236.792 244.987C236.552 244.687 236.43 244.681 235.831 244.714C233.133 244.87 228.927 245.276 226.077 245.632C225.386 245.715 225.284 245.847 225.142 246.087C220.598 253.58 215.747 261.66 210.42 267.07C204.706 272.87 199.957 274.397 194.915 274.437" fill="white"/>
</svg>
