<svg width="500" height="500" viewBox="0 0 500 500" fill="none" xmlns="http://www.w3.org/2000/svg">
<path d="M303.264 171.71C297.916 195.443 295.743 206.473 291.565 223.688C287.387 240.234 284.211 255.609 278.696 262.963C273.181 270.317 265.493 272.155 260.312 272.657C256.802 272.991 253.459 273.158 249.95 273.158C246.44 273.158 243.097 272.991 239.588 272.657C234.407 272.155 226.886 270.484 221.203 262.963C215.521 255.442 212.345 240.234 208.334 223.688C203.989 206.473 201.816 195.61 196.635 171.71C196.635 171.71 191.287 171.878 188.947 172.045C185.772 172.212 183.265 172.546 180.591 172.88C180.591 172.88 183.599 221.849 185.103 242.573C186.607 264.3 189.114 301.069 191.454 328.812C191.454 328.812 195.967 329.481 203.32 329.982C211.176 330.484 214.518 330.484 214.518 330.484C217.694 318.283 221.705 301.236 226.217 294.049C229.894 288.2 235.576 287.531 238.752 287.03C242.429 286.528 246.273 286.194 249.95 286.361C253.626 286.361 257.47 286.528 261.147 287.03C264.323 287.531 270.005 288.033 273.682 294.049C278.194 301.236 282.206 318.283 285.381 330.484C285.381 330.484 288.891 330.484 296.579 329.982C303.932 329.481 308.445 328.812 308.445 328.812C310.785 301.069 313.459 264.3 314.796 242.573C316.133 221.849 319.308 172.88 319.308 172.88C316.634 172.546 314.127 172.212 310.952 172.045C308.445 172.045 303.264 171.71 303.264 171.71V171.71Z" fill="black"/>
<path d="M364.934 200.624C361.759 169.537 341.034 163.019 322.817 160.011C313.625 158.507 297.414 157.17 286.884 156.836C277.692 156.334 256.3 156 249.782 156C243.264 156 221.871 156.334 212.679 156.836C202.317 157.337 185.938 158.507 176.746 160.178C158.863 163.019 138.139 169.537 134.964 200.624C134.128 210.986 133.794 221.515 134.128 232.044C134.295 246.083 135.298 260.289 136.969 274.161C137.638 280.512 140.312 299.397 143.654 309.258C148.334 322.795 152.512 326.639 157.359 330.65C166.384 338.004 181.259 340.177 184.434 340.845C201.147 343.854 235.074 344.355 249.949 344.355C264.823 344.355 298.751 343.854 315.464 340.845C318.639 340.344 333.514 338.004 342.539 330.65C347.385 326.639 351.731 322.628 356.243 309.258C359.586 299.397 362.26 280.512 362.928 274.161C364.6 260.122 365.603 246.083 365.77 232.044C366.271 221.515 365.937 211.153 364.934 200.624V200.624ZM353.569 252.768C351.731 277.503 349.558 292.545 346.383 303.241C343.709 312.6 340.199 318.951 335.185 323.464C326.828 330.985 315.297 332.656 308.444 333.659C293.904 335.831 269.169 336.5 249.949 336.667C230.562 336.667 205.994 335.831 191.454 333.659C184.768 332.656 173.236 330.985 164.88 323.464C159.866 318.951 156.356 312.6 153.682 303.241C150.34 292.545 148.167 277.67 146.329 252.768C145.159 237.726 145.493 213.493 147.164 200.624C149.671 181.237 159.198 171.376 179.922 167.699C191.454 165.861 203.153 164.691 214.852 164.189C224.712 163.521 240.924 163.187 249.949 163.354C258.974 163.354 275.185 163.521 285.046 164.189C296.745 164.691 308.444 165.861 319.976 167.699C340.7 171.376 350.227 181.237 352.734 200.624C354.405 213.66 354.739 237.893 353.569 252.768V252.768Z" fill="black"/>
</svg>
