<svg width="500" height="500" viewBox="0 0 500 500" fill="none" xmlns="http://www.w3.org/2000/svg">
<path d="M250 309.026C314.093 309.026 366 282.371 366 249.527C366 216.682 314.093 190 250 190C185.935 190 134 216.655 134 249.499C134 282.343 185.935 309.026 250 309.026ZM271.786 279.785C269.888 284.241 266.532 293.842 258.913 297.638C256.574 298.738 253.686 299.316 251.183 299.398C250.605 299.481 250.22 299.398 250.083 299.398C228.654 299.398 208.738 296.482 192.041 291.366C191.904 291.283 191.519 291.146 191.519 291.146C189.841 290.623 189.043 289.908 189.043 289.028C189.043 288.285 189.401 287.707 190.006 287.13C190.226 286.91 190.583 286.607 191.023 286.167C194.82 282.949 206.538 274.531 228.296 266.086C235.999 263.17 245.571 259.512 255.612 257.366C261.553 256.239 283.367 252.965 271.786 279.785ZM330.515 219.846C330.873 219.103 331.478 218.47 332.496 218.47C333.073 218.388 333.733 218.553 334.834 219.268C348.45 227.658 356.592 238.138 356.592 249.499C356.592 270.047 330.24 287.652 292.609 295.382C290.189 295.905 288.593 295.905 288.016 295.244C287.658 294.804 287.493 294.227 288.016 293.429C288.236 292.989 288.538 292.631 289.033 292.109C309.554 267.902 325.206 232.169 329.58 221.799C329.855 220.946 330.185 220.286 330.515 219.846ZM228.571 219.048C230.47 214.592 233.825 204.992 241.445 201.196C243.783 200.04 246.672 199.518 249.175 199.435H250.33C271.676 199.435 291.619 202.433 308.289 207.467C308.426 207.467 308.811 207.605 308.949 207.687C310.489 208.21 311.287 208.925 311.287 209.806C311.287 210.603 310.847 211.126 310.324 211.704C310.104 211.924 309.747 212.281 309.307 212.666C305.428 215.885 293.875 224.302 272.034 232.637C264.332 235.635 254.759 239.211 244.719 241.439C238.777 242.622 216.991 245.923 228.571 219.048V219.048ZM207.556 203.616C209.976 203.094 211.874 203.094 212.369 203.754C212.727 204.111 212.892 204.772 212.369 205.569C212.149 206.009 211.847 206.367 211.407 206.945C190.858 231.152 175.234 266.884 170.86 277.172C170.503 277.915 170.2 278.63 169.898 279.07C169.457 279.813 168.88 280.39 167.917 280.445C167.394 280.445 166.679 280.308 165.496 279.648C151.88 271.258 143.49 260.777 143.49 249.417C143.6 228.951 169.953 211.318 207.556 203.616Z" fill="black"/>
<path d="M250 190C185.935 190 134 216.572 134 249.417C134 282.261 185.935 308.833 250 308.833C314.093 308.833 366 282.178 366 249.417C366 216.572 314.093 190 250 190V190ZM330.625 288.23C309.197 299.206 280.589 305.285 250.028 305.285C219.466 305.285 190.913 299.178 169.485 288.23C148.854 277.612 137.548 263.886 137.548 249.472C137.548 235.058 148.909 221.304 169.512 210.686C190.941 199.628 219.549 193.631 250.11 193.631C280.671 193.631 309.252 199.683 330.708 210.686C351.366 221.304 362.672 235.058 362.672 249.444C362.672 263.831 351.283 277.612 330.625 288.23V288.23Z" fill="black"/>
</svg>
