<svg width="500" height="500" viewBox="0 0 500 500" fill="none" xmlns="http://www.w3.org/2000/svg">
<path d="M173.926 204H192.81V253.004C192.81 261.444 189.155 279.095 162.992 279.095C136.836 279.095 134 262.642 134 253.379V244.35H152.255V253.201C152.255 258.616 155.856 263.644 162.795 263.644C169.69 263.644 173.926 259.822 173.926 253.379V204H173.926ZM222.007 224.481C236.798 224.481 249.822 230.115 249.822 255.984H214.71C214.71 264.239 218.166 267.647 224.25 267.647C230.307 267.647 232.349 262.85 232.349 262.85H249.606C249.606 270.271 239.265 280.29 223.628 280.133C205.787 280.133 197.039 267.048 197.039 253.62C197.039 240.166 204.79 224.481 222.007 224.481M232.573 245.565C232.573 240.548 229.735 235.719 223.238 235.719C216.93 235.719 214.71 240.166 214.71 245.565H232.573ZM278.405 224.481C293.215 224.481 306.214 230.115 306.214 255.984H271.113C271.113 264.239 274.557 267.647 280.643 267.647C286.747 267.647 288.752 262.85 288.752 262.85H305.989C305.989 270.271 295.671 280.29 280.042 280.133C262.173 280.133 253.427 267.048 253.427 253.62C253.427 240.166 261.144 224.481 278.405 224.481M288.973 245.565C288.973 240.548 286.118 235.719 279.633 235.719C273.329 235.719 271.113 240.166 271.113 245.565H288.973ZM310.652 295.774V226.493H328.098V234.365C328.706 233.055 329.159 232.142 330.508 230.498C331.678 229.096 334.96 225.08 343.7 225.08C352.415 225.08 366 231.102 366 252.406C366 268.867 357.906 280.915 343.903 280.915C336.18 280.915 332.734 278.252 330.71 276.712C329.414 275.698 329.012 275.222 328.301 274.275V295.774H310.652V295.774ZM327.876 253.004C327.679 263.248 329.912 268.639 338.431 268.639C346.934 268.639 348.183 259.432 348.183 252.406C348.183 245.368 346.536 238.556 337.614 238.556C332.158 238.556 328.098 242.752 327.876 253.004Z" fill="black"/>
<path d="M173.926 204H192.81V253.004C192.81 261.444 189.155 279.095 162.992 279.095C136.836 279.095 134 262.642 134 253.379V244.35H152.255V253.201C152.255 258.616 155.856 263.644 162.795 263.644C169.69 263.644 173.926 259.822 173.926 253.379V204H173.926ZM222.007 224.481C236.798 224.481 249.822 230.115 249.822 255.984H214.71C214.71 264.239 218.166 267.647 224.25 267.647C230.307 267.647 232.349 262.85 232.349 262.85H249.606C249.606 270.271 239.265 280.29 223.628 280.133C205.787 280.133 197.039 267.048 197.039 253.62C197.039 240.166 204.79 224.481 222.007 224.481M232.573 245.565C232.573 240.548 229.735 235.719 223.238 235.719C216.93 235.719 214.71 240.166 214.71 245.565H232.573ZM278.405 224.481C293.215 224.481 306.214 230.115 306.214 255.984H271.113C271.113 264.239 274.557 267.647 280.643 267.647C286.747 267.647 288.752 262.85 288.752 262.85H305.989C305.989 270.271 295.671 280.29 280.042 280.133C262.173 280.133 253.427 267.048 253.427 253.62C253.427 240.166 261.144 224.481 278.405 224.481M288.973 245.565C288.973 240.548 286.118 235.719 279.633 235.719C273.329 235.719 271.113 240.166 271.113 245.565H288.973ZM310.652 295.774V226.493H328.098V234.365C328.706 233.055 329.159 232.142 330.508 230.498C331.678 229.096 334.96 225.08 343.7 225.08C352.415 225.08 366 231.102 366 252.406C366 268.867 357.906 280.915 343.903 280.915C336.18 280.915 332.734 278.252 330.71 276.712C329.414 275.698 329.012 275.222 328.301 274.275V295.774H310.652V295.774ZM327.876 253.004C327.679 263.248 329.912 268.639 338.431 268.639C346.934 268.639 348.183 259.432 348.183 252.406C348.183 245.368 346.536 238.556 337.614 238.556C332.158 238.556 328.098 242.752 327.876 253.004Z" fill="black"/>
</svg>
