<svg width="500" height="500" viewBox="0 0 500 500" fill="none" xmlns="http://www.w3.org/2000/svg">
<path d="M243.104 312.296C234.814 312.078 225.671 311.348 217.579 310.259C183.123 305.624 154.251 293.808 138.178 277.767C131.362 270.965 127.042 263.491 125.586 255.979C125.112 253.532 125 252.333 125 249.694C125 247.055 125.112 245.857 125.586 243.41C126.544 238.471 128.818 233.38 132.173 228.661C139.762 217.99 153.077 208.489 170.547 201.281C199.666 189.265 237.793 184.505 274.92 188.251C318.505 192.647 354.358 208.552 368.586 229.8C375.09 239.514 376.683 250.064 373.203 260.376C371.194 266.33 367.289 272.281 361.793 277.767C346.564 292.965 319.762 304.427 287.592 309.497C273.205 311.765 258.372 312.698 243.104 312.296L243.104 312.296ZM262.112 304.276C279.557 303.196 294.288 300.632 308.644 296.177C320.034 292.641 330.651 287.748 338.802 282.275C342.91 279.517 345.76 277.189 348.982 273.959C352.81 270.124 355.279 266.758 357.29 262.639C359.539 258.03 360.411 254.417 360.411 249.694C360.411 244.944 359.482 241.139 357.204 236.546C355.234 232.574 352.721 229.175 348.983 225.429C343.493 219.927 336.971 215.389 328.352 211.075C312.216 202.997 292.028 197.713 269.538 195.68C257.081 194.554 242.929 194.553 230.432 195.678C198.814 198.525 171.672 207.911 154.877 221.805C152.747 223.568 148.95 227.401 147.359 229.397C141.668 236.531 138.981 244.229 139.593 251.646C140.259 259.727 143.899 266.853 150.988 273.959C156.358 279.343 162.743 283.817 171.046 288.016C189.955 297.577 213.189 303.056 240.515 304.399C243.602 304.551 259.104 304.463 262.112 304.277V304.276ZM173.477 281.384C173.327 281.321 173.081 281.134 172.932 280.967C172.661 280.666 172.659 280.448 172.625 251.492L172.589 222.319L172.229 221.943C171.887 221.586 171.793 221.564 170.492 221.528L169.116 221.489V217.81L179.018 217.776L188.919 217.74L189.339 218.094L189.76 218.448V228.965C189.76 240.521 189.728 240.088 190.559 240.088C191.075 240.088 191.253 239.873 194.126 235.796C201.735 224.995 205.92 219.12 206.299 218.713C207.228 217.708 206.807 217.749 216.438 217.745L225.063 217.742L225.391 218.071C225.796 218.476 225.948 219.027 225.764 219.421C225.647 219.671 221.916 225.212 208.885 244.484C207.463 246.588 207.065 247.274 207.068 247.618C207.072 247.975 207.997 249.364 211.948 254.941C229.408 279.581 229.464 279.662 229.518 280.16C229.559 280.535 229.491 280.742 229.23 281.046L228.889 281.443L219.882 281.479C211.001 281.515 210.866 281.512 210.212 281.231C209.847 281.074 209.397 280.782 209.211 280.581C209.025 280.38 204.919 274.666 200.087 267.884C195.255 261.103 191.203 255.472 191.083 255.373C190.748 255.095 190.132 255.227 189.935 255.621C189.801 255.888 189.763 258.664 189.762 268.319L189.76 280.678L189.43 281.059L189.101 281.442L181.426 281.47C177.203 281.485 173.626 281.446 173.477 281.384V281.384ZM241.874 281.322C241.648 281.223 241.388 280.976 241.295 280.774C241.165 280.488 241.129 274.006 241.129 251.381V222.355L240.73 221.956C240.345 221.571 240.288 221.558 239.027 221.558H237.722V217.743H257.884L258.329 218.14L258.774 218.538V280.687L258.396 281.065L258.019 281.443L250.153 281.473C243.852 281.498 242.204 281.467 241.874 281.323V281.322ZM271.173 281.346C270.75 281.103 270.569 280.8 270.564 280.325C270.562 280.085 272.496 274.106 274.862 267.04L283.226 242.064C284.966 236.865 286.711 231.669 288.462 226.474C289.107 224.569 289.636 222.844 289.636 222.64C289.636 222.435 289.519 222.124 289.376 221.947C289.143 221.659 288.977 221.618 287.775 221.558L286.434 221.489L286.396 219.616L286.359 217.742L298.455 217.743C306.396 217.743 310.726 217.793 311.061 217.886C311.341 217.963 311.637 218.154 311.721 218.308C311.891 218.626 313.248 222.637 319.641 241.724C330.042 272.776 332.421 279.943 332.421 280.236C332.421 280.715 332.151 281.194 331.786 281.36C331.555 281.464 329.137 281.511 323.865 281.511C316.908 281.511 316.235 281.491 315.807 281.273C315.55 281.142 315.228 280.88 315.089 280.692C314.951 280.504 313.895 277.407 312.74 273.811C301.742 239.531 302.046 240.467 301.799 240.191C301.525 239.887 301.317 239.889 301.035 240.202C300.81 240.45 300.387 241.753 294.407 260.596C293.024 264.957 291.637 269.317 290.248 273.676C289.696 275.4 288.99 277.622 288.677 278.616C288.063 280.568 287.79 281.034 287.097 281.323C286.498 281.574 271.606 281.595 271.173 281.347V281.346Z" fill="black"/>
</svg>
