<svg width="500" height="500" viewBox="0 0 500 500" fill="none" xmlns="http://www.w3.org/2000/svg">
<path d="M250.113 360C245.324 360 240.996 358.851 237.129 356.552C233.261 354.247 230.223 351.16 228.013 347.293C221.935 347.293 216.734 345.13 212.41 340.806C208.078 336.475 205.913 331.27 205.913 325.193V285.965C195.047 278.783 186.347 269.298 179.812 257.511C173.271 245.725 170 232.925 170 219.113C170 196.828 177.779 177.903 193.338 162.338C208.903 146.779 227.828 139 250.113 139C272.397 139 291.318 146.779 306.876 162.338C322.442 177.903 330.225 196.828 330.225 219.113C330.225 233.293 326.958 246.185 320.424 257.788C313.882 269.39 305.178 278.783 294.313 285.965V325.193C294.313 331.27 292.15 336.475 287.826 340.806C283.495 345.13 278.29 347.293 272.213 347.293C270.003 351.16 266.964 354.247 263.096 356.552C259.229 358.851 254.901 360 250.113 360ZM228.013 325.193H272.213V293.7H228.013V325.193ZM225.803 271.6H241.825H258.4H274.423C284.368 266.812 292.471 259.765 298.733 250.461C304.994 241.165 308.125 230.715 308.125 219.113C308.125 202.906 302.508 189.185 291.274 177.951C280.04 166.717 266.319 161.1 250.113 161.1C233.906 161.1 220.185 166.717 208.951 177.951C197.717 189.185 192.1 202.906 192.1 219.113C192.1 230.715 195.231 241.165 201.493 250.461C207.754 259.765 215.858 266.812 225.803 271.6Z" fill="black"/>
</svg>
