<svg width="500" height="500" viewBox="0 0 500 500" fill="none" xmlns="http://www.w3.org/2000/svg">
<path d="M250.187 350.373C236.328 350.373 223.303 347.742 211.114 342.479C198.924 337.222 188.321 330.086 179.305 321.069C170.288 312.052 163.151 301.449 157.895 289.259C152.632 277.07 150 264.046 150 250.187C150 236.328 152.632 223.303 157.895 211.114C163.151 198.924 170.288 188.321 179.305 179.305C188.321 170.288 198.924 163.148 211.114 157.885C223.303 152.628 236.328 150 250.187 150C264.046 150 277.07 152.628 289.259 157.885C301.449 163.148 312.052 170.288 321.069 179.305C330.086 188.321 337.222 198.924 342.479 211.114C347.742 223.303 350.373 236.328 350.373 250.187C350.373 264.046 347.742 277.07 342.479 289.259C337.222 301.449 330.086 312.052 321.069 321.069C312.052 330.086 301.449 337.222 289.259 342.479C277.07 347.742 264.046 350.373 250.187 350.373ZM250.187 330.336C272.562 330.336 291.514 322.572 307.043 307.043C322.572 291.514 330.336 272.562 330.336 250.187C330.336 227.812 322.572 208.86 307.043 193.331C291.514 177.802 272.562 170.037 250.187 170.037C227.812 170.037 208.86 177.802 193.331 193.331C177.802 208.86 170.037 227.812 170.037 250.187C170.037 272.562 177.802 291.514 193.331 307.043C208.86 322.572 227.812 330.336 250.187 330.336Z" fill="black"/>
</svg>
