<svg width="500" height="500" viewBox="0 0 500 500" fill="none" xmlns="http://www.w3.org/2000/svg">
<path d="M229.247 242.261C222.404 232.997 214.257 227.799 205.869 223.623C204.51 222.946 203.143 222.296 201.771 221.657C205.745 223.221 209.584 225.008 215.721 228.508C222.453 232.347 228.503 240.538 232.326 246.2C232.8 246.903 233.282 247.606 233.766 248.307C232.277 246.375 230.783 244.341 229.247 242.261Z" fill="black"/>
<path fill-rule="evenodd" clip-rule="evenodd" d="M161.425 257.259C161.716 259.707 162.071 262.147 162.49 264.576C179.222 320.533 198.688 324.688 246.53 326.806C283.694 328.45 304.968 319.227 317.497 307.678C330.037 296.119 333.891 282.167 336.086 274.176C337.663 268.433 338.708 262.888 339.167 257.26L365.808 257.259C364.726 275.332 359.045 292.826 347.037 308.309C332.191 326.595 308.977 335.006 288.891 338.829C268.793 342.655 251.737 341.909 249.12 341.826C246.506 341.743 236.95 341.878 225.176 340.858C213.398 339.837 199.366 337.658 187.829 332.93C182.746 330.847 178.354 328.707 174.49 326.459C164.041 320.165 154.379 311.009 149.655 304.288C143.725 295.85 136.606 281.071 134.57 257.261L161.425 257.259V257.259ZM248.502 257.259C249.317 258.387 249.955 259.045 250.301 259.134C250.507 259.097 250.745 258.929 251.096 258.507C251.369 258.179 251.666 257.752 251.982 257.26L275.246 257.259C271.229 260.267 267.751 263.709 264.479 267.83C259.13 274.565 256.071 281.189 255.094 284.416C254.076 287.775 252.14 290.606 251.839 291.026C251.482 291.525 249.843 291.95 249.294 290.995C248.729 290.49 248.153 289.45 247.626 288.088C246.938 286.311 246.079 283.53 244.345 280.034C242.62 276.555 240.023 272.357 235.848 267.725C232.245 263.726 228.496 260.22 224.667 257.26L248.502 257.259" fill="black"/>
<path fill-rule="evenodd" clip-rule="evenodd" d="M134.569 257.259C134.202 252.971 134 248.387 134 243.494V243.341L134.001 243.193L134.001 243.045L134.002 242.896C134.184 220.318 144.551 199.845 152.106 191.034C153.144 189.823 156.955 185.451 160.247 182.352C169.708 173.446 195.295 156.554 252.321 158.099C284.754 158.174 304.507 162.437 317.871 168.234C324.556 171.135 329.632 174.415 333.892 177.736C338.134 181.046 341.564 184.396 344.971 187.453L345.062 187.535L345.101 187.651C345.123 187.717 361.245 207.113 364.901 234.565C365.912 242.162 366.255 249.759 365.807 257.257L339.166 257.259C339.635 251.514 339.493 245.681 338.685 239.463C338.117 236.226 337.523 233.636 337.094 231.933C337.188 231.869 336.52 232.448 336.52 232.448C336.52 232.448 331.791 235.378 308.882 242.281C293.65 246.871 283.351 251.185 275.245 257.258L251.981 257.259C252.046 257.159 252.111 257.055 252.178 256.948C252.962 255.689 253.8 254.151 254.574 252.891C256.283 250.107 261.476 242.71 268.858 235.791C276.064 229.037 293.36 221.081 306.14 216.333C308.283 215.539 310.407 214.695 312.511 213.803C317.769 211.378 322.975 208.301 327.643 205.223C327.337 204.03 326.991 203.264 326.805 202.878C326.805 202.878 326.581 202.296 326.059 201.316C325.528 200.317 324.686 198.895 323.442 197.203C320.951 193.816 316.842 189.334 310.383 184.986C307.381 182.914 303.034 180.616 297.342 178.093C286.008 173.44 270.551 169.994 249.622 169.994C217.201 169.994 198.24 178.171 187.396 186.298C181.972 190.364 178.569 194.424 176.525 197.459C175.505 198.973 174.822 200.234 174.394 201.117C173.975 201.981 173.351 203.222 173.351 203.222C172.734 204.947 173.434 205.683 174.693 206.502C177.24 208.157 181.058 210.434 181.758 210.85C184.853 212.386 189.118 214.308 194.571 216.333C207.35 221.081 224.647 229.037 231.853 235.791C239.243 242.718 244.079 250.255 245.78 253.024C246.551 254.28 247.461 255.786 248.322 257.01C248.383 257.096 248.443 257.18 248.501 257.261L224.666 257.259C219.599 253.343 214.391 250.381 209.192 248.497C199.986 245.159 190.55 243.089 186.406 241.823C184.432 241.219 182.054 240.462 180.104 239.835C179.047 239.494 177.99 239.151 176.934 238.806L176.44 238.635C171.962 237.074 167.373 235.102 163.046 232.598C162.877 232.5 162.771 232.478 162.714 232.476C162.67 232.473 162.626 232.485 162.59 232.511C162.543 232.541 162.487 232.595 162.418 232.686C162.339 232.79 162.27 232.902 162.201 233.005C161.951 233.38 160.972 241.362 160.807 250.797C160.826 250.797 160.954 253.305 161.424 257.26L134.569 257.259" fill="black"/>
<path d="M161.797 263.688C178.675 320.924 198.309 325.191 246.579 327.327C321.079 330.624 332.206 290.356 336.599 274.359C341.449 256.703 338.734 233.615 338.734 233.615L346.301 259.419L331.362 307.924L310.408 323.446L288.097 330.236L252.399 334.31L206.807 330.236L181.003 317.238L168.004 298.612L162.96 280.956C162.96 280.956 160.825 268.345 161.797 263.688V263.688Z" fill="black"/>
<path d="M337.384 227.589C337.384 227.589 345.537 261.351 332.526 288.327C319.515 315.304 307.137 331.782 249.305 331.978C191.474 332.173 179.463 308.102 170.529 291.428C161.594 274.754 160.446 250.878 160.446 250.878L159.395 278.924L175.948 310.055L189.74 322.676L209.319 331.197L261.707 334.492L284.801 331.197L309.433 324.995L332.917 305.393L342.218 271.824L341.265 234.594C339.82 228.878 338.526 226.543 337.384 227.589V227.589Z" fill="black"/>
<path d="M150.194 209.907L155.56 213.425C155.56 213.425 154.72 252.484 154.552 253.146C154.384 253.806 154.552 274.927 154.552 274.927L161.42 301.729L158.406 304.25L143.83 265.706L145.342 233.874L148.356 213.929L150.194 209.907Z" fill="black"/>
<path d="M338.968 228.621C338.968 228.621 347.245 263.272 334.725 290.05C322.205 316.829 313.182 330.346 251.965 332.755C202.309 334 189.4 321.072 180.223 311.664C172.963 304.222 167.912 291.771 167.912 291.771C167.912 291.771 145.502 250.305 147.877 263.385C150.989 280.525 155.957 305.085 175.259 320.501C187.083 329.944 210.93 335.764 210.93 335.764L248.279 338.72L281.697 336.738L334.556 316.358L357.16 266.941C356.107 243.973 353.893 224.972 350.518 209.941L343.146 216.306L338.968 228.621Z" fill="black"/>
<path d="M152.424 195.094C152.424 195.094 151.45 205.514 153.78 211.632C150.632 216.674 146.485 231.779 145.948 243.913C145.41 256.047 147.677 287.712 163.318 305.786C160.707 310.727 159.152 313.77 159.152 313.77C159.152 313.77 134.531 297.057 134.531 243.554C134.531 217.75 148.431 194.563 155.804 188.445C153.552 191.594 152.424 195.094 152.424 195.094H152.424Z" fill="black"/>
<path d="M136.301 253.828C136.301 253.828 137.009 279.753 146.698 296.198C156.387 312.644 165.129 323.161 188.074 332.565C211.018 341.969 243.983 341.262 249.205 341.427C254.425 341.593 317.256 344.406 346.746 308.085C363.642 286.298 368.036 260.493 364.515 234.689C360.994 208.885 347.904 193.808 347.904 193.808C347.904 193.808 349.725 198.488 347.573 211.412C350.763 216.965 355.939 235.396 354.946 250.142C353.953 264.887 351.247 284.888 340.035 300.547C332.829 310.613 327.111 317.654 311.373 325.027C295.635 332.4 271.532 336.086 249.746 335.755C227.96 335.424 207.001 333.724 189.398 325.689C171.794 317.654 162.436 305.437 155.725 295.702C149.015 285.967 154.191 290.902 145.991 282.822C137.791 274.742 136.302 253.828 136.302 253.828" fill="black"/>
<path d="M152.938 190.948C152.938 190.948 175.669 156.542 252.38 158.62C317.185 158.769 331.134 175.653 344.734 187.856C345.029 188.746 339.347 193.354 339.347 193.354L330.019 196.856L303.3 175.882L255.837 165.535C255.837 165.535 211.171 170.823 209.315 170.594C207.459 170.365 178.198 186.712 178.198 186.712L172.728 203.488L155.395 190.398L152.938 190.948" fill="black"/>
<path d="M157.005 188.336C157.005 188.336 177.808 157.224 252.311 159.242C315.249 159.386 330.537 177.406 343.747 189.257C339.533 192.856 335.096 192.353 335.096 192.353L327.714 196.377L301.765 176.007L255.669 165.958C255.669 165.958 212.289 171.094 210.486 170.872C208.683 170.65 180.265 186.526 180.265 186.526L165.188 195.895L156.083 190.409L157.005 188.336Z" fill="black"/>
<path d="M157.006 191.792C157.006 191.792 182.118 163.684 249.161 163.684C316.204 163.684 340.699 186.38 343.27 189.808C340.357 193.554 335.096 197.552 335.096 197.552C317.92 186.759 301.793 178.235 286.714 171.978L246.166 165.988C246.166 165.988 198.246 177.047 197.324 177.047C196.403 177.047 171.52 194.557 171.52 194.557C171.52 194.557 169.486 197.98 167.594 197.557C162.439 193.381 157.006 191.792 157.006 191.792V191.792Z" fill="black"/>
<path d="M327.269 202.756C327.269 202.756 314.694 169.594 249.692 169.594C184.69 169.594 173.439 202.385 173.439 202.385L170.331 196.941L181.39 181.81L210.686 168.414L231.035 165.303L250.463 164.342L275.367 165.696L294.977 169.874L322.044 183.568L336.705 195.187L337.753 196.363L327.269 202.756Z" fill="black"/>
<path d="M325.43 207.894C325.43 207.894 319.156 212.077 306.369 216.826C293.584 221.575 276.372 229.505 269.242 236.188C261.895 243.074 256.728 250.437 255.035 253.193C253.343 255.949 251.342 260.034 250.279 259.635C250.147 261.993 249.615 276.073 249.615 276.073L250.412 276.605L257.12 265.014L279.37 240.804L289.498 230.012L324.003 213.539L325.43 207.894Z" fill="black"/>
<path d="M305.096 217.671C300.943 219.491 281.454 225.634 271.803 237.423C268.513 241.443 262.742 252.028 261.167 254.588C259.591 257.15 251.965 273.471 250.108 275.722C248.251 277.973 260.013 266.211 260.013 266.211C260.013 266.211 291.922 237.845 292.626 237.423C293.33 237.001 304.669 226.787 304.669 226.787C304.669 226.787 308.355 216.241 305.096 217.671" fill="black"/>
<path d="M345.811 192.201C345.811 192.201 329.096 206.947 312.072 214.601C295.048 222.255 273.814 229.577 261.101 257.544C251.434 274.601 276.195 242.235 276.195 242.235L289.224 232.892L319.445 219.413L334.893 209.508L345.811 192.201Z" fill="black"/>
<path d="M346.092 191.921C346.092 191.921 334.199 203.896 317.446 213.336C311.903 216.46 297.163 222.915 290.377 226.505C275.426 234.416 267.697 248.342 265.277 251.184C262.857 254.027 250.392 276.426 250.392 276.426L255.766 275.272L276.476 247.92L293.332 237.705L331.77 225.661L344.376 215.165C344.376 215.165 347.43 216.714 348.344 202.418C348.907 193.61 346.092 191.921 346.092 191.921L346.092 191.921Z" fill="black"/>
<path d="M317.817 238.909L292.36 247.088L278.076 252.963L259.99 266.441C259.99 266.441 255.728 274.044 255.383 275.657C255.037 277.27 252.388 286.025 252.388 286.025L252.042 288.905L251.12 290.056L250.314 284.873L250.769 277.798L254.3 271.265L258.378 264.252L265.981 256.073L276.463 249.852L294.203 244.323L308.948 240.521L317.817 238.909Z" fill="black"/>
<path d="M336.318 232.136C336.318 232.136 331.636 235.025 308.821 241.899C286.006 248.773 274.151 255.058 264.188 267.604C258.808 274.379 255.719 281.054 254.723 284.342C253.727 287.63 251.825 290.413 251.535 290.818C251.236 291.235 249.699 291.414 249.68 290.517C249.673 290.208 250.997 291.355 251.445 288.058C251.431 284.233 251.781 277.464 254.026 273.482C257.114 268.002 261.797 261.427 269.368 256.943C276.94 252.46 286.703 248.575 293.079 246.283C299.456 243.991 315.396 239.608 322.27 237.117C329.145 234.626 337.812 230.84 337.812 230.84L336.318 232.136Z" fill="black"/>
<path d="M250.958 277.269C250.958 277.269 251.328 287.774 250.958 288.883C250.589 289.992 248.752 288.328 248.752 288.328L241.287 270.913L230.783 260.039L214.836 250.078L207.833 247.316L196.59 243.814L191.979 242.428L191.055 239.758L214.559 245.479L232.158 254.688L241.194 263.17L247.92 272.381L250.958 277.269Z" fill="black"/>
<path d="M175.419 207.894C175.419 207.894 181.693 212.077 194.479 216.826C207.266 221.575 224.477 229.505 231.607 236.188C238.954 243.074 243.764 250.57 245.457 253.326C247.15 256.082 249.507 260.034 250.57 259.635C250.703 261.993 251.234 276.073 251.234 276.073L250.437 276.605L243.729 265.014L221.479 240.804L211.351 230.012L176.846 213.539L175.419 207.894Z" fill="black"/>
<path d="M248.151 272.653L239.031 261.267L222.469 247.055L169.851 226.526L153.813 212.028C153.813 212.028 150.065 199.736 152.413 195.172C152.328 193.74 155 186.292 155.996 188.611C158.712 191.373 161.983 195.475 173.134 202.756C172.172 205.019 173.071 206.009 174.514 206.947C177.334 208.781 181.708 211.372 181.708 211.372L191.102 216.553L209.39 225.772L219.072 231.876L228.541 241.849L235.625 250.596L243.286 260.57L251.13 276.223L248.151 272.653Z" fill="black"/>
<path d="M171.441 298.737C167.383 295.888 162.285 293.527 157.312 290.34C153.314 287.778 150.167 277.171 148.602 268.349C143.029 236.926 154.039 213.828 154.039 213.828C154.039 213.828 154.232 213.284 154.019 213.09C153.22 212.359 153.793 211.043 155.05 211.878C169.108 221.219 172.71 221.3 183.722 226.436C199.491 233.79 216.022 233.721 233.56 251.397C241.908 259.811 250.204 276.376 251.166 276.17C251.097 277.82 250.848 285.61 250.848 285.61C250.848 285.61 251.293 278.117 248.904 274.358C239.214 259.113 225.019 252.771 225.019 252.771C225.019 252.771 212.792 246.405 193.63 242.718C185.369 241.129 173.603 238.197 163.347 232.26C162.498 231.769 162.183 232.367 161.888 232.811C161.33 233.648 159.12 254.766 161.411 268.349C163.537 280.956 166.453 287.778 171.441 298.737V298.737Z" fill="black"/>
<path d="M156.106 188.694C156.106 188.694 162.266 195.99 172.787 202.792C168.387 201.16 166.418 200.906 162.441 197.874C159.772 195.838 156.106 188.694 156.106 188.694" fill="black"/>
<path d="M344.585 188.374C344.585 188.374 339.698 193.637 336.423 196.088C333.149 198.54 327.659 202.556 327.659 202.556L337.658 197.613L344.585 188.374" fill="black"/>
<path d="M164.091 195.251C164.091 195.251 172.906 183.041 187.65 175.887C202.395 168.733 212.23 167.203 221.336 165.862C230.081 164.575 247.801 164.24 249.194 164.216H249.281C250.715 164.239 269.446 164.574 278.201 165.862C287.307 167.203 297.218 168.441 311.962 175.595C326.707 182.749 337.091 195.606 337.091 195.606C337.091 195.606 333.392 196.475 331.134 198.326C328.875 200.176 328.026 199.341 328.026 199.341C328.026 199.341 327.825 194.231 320.963 186.757C314.1 179.282 303.494 174.867 289.769 169.957C276.501 165.21 250.966 165.052 249.281 165.047H249.194C247.553 165.052 223.029 165.212 209.768 169.957C196.043 174.867 188.058 180.506 181.196 187.981C174.333 195.455 172.906 203.032 172.906 203.032C172.906 203.032 170.662 200.176 168.404 198.325C166.145 196.475 164.091 195.251 164.091 195.251L164.091 195.251Z" fill="black"/>
<path fill-rule="evenodd" clip-rule="evenodd" d="M233.739 248.325C232.255 246.294 230.765 244.267 229.27 242.243C222.424 232.973 214.272 227.774 205.882 223.596C204.524 222.922 203.158 222.267 201.784 221.63C205.731 223.25 209.569 225.036 215.705 228.536C222.43 232.371 228.476 240.556 232.299 246.219C232.775 246.924 233.255 247.626 233.739 248.325V248.325ZM154.193 192.363C155.394 193.692 164.891 201.706 180.523 211.903C196.496 222.322 215.08 224.586 228.529 242.797C239.005 256.981 240.08 255.466 249.516 272.998C247.763 267.995 245.912 264.512 243.541 260.797C241.169 257.083 236.876 251.345 233.063 245.697C229.25 240.049 223.097 231.684 216.16 227.728C209.225 223.772 205.202 221.99 200.669 220.178C196.135 218.366 188.749 215.497 181.604 211.42C174.459 207.342 162.18 198.946 154.193 192.363" fill="black"/>
<path d="M251.602 276.348C258.667 261.049 265.487 252.264 279.648 242.019C287.843 236.09 293.757 234.998 303.109 231.287C309.303 228.828 313.025 228.04 319.197 225.527C330.478 220.932 335.503 218.672 347.107 211.514C347.913 214.248 341.913 224.985 337.628 231.287C325.572 236.597 315.867 239.545 301.427 242.925C292.764 244.953 286.392 247.047 277.59 250.605C262.845 256.565 258.578 263.904 251.602 276.349V276.348Z" fill="black"/>
<path d="M247.663 275.655C249.95 280.177 251.003 284.18 251.003 288.212C251.003 292.244 249.505 291.553 248.123 287.982C246.741 284.411 244.667 276.808 236.258 267.476C227.849 258.145 218.634 251.464 209.418 248.123C200.203 244.783 190.756 242.709 186.609 241.441C182.463 240.174 176.539 238.229 176.539 238.229L186.955 240.866C186.955 240.866 210.57 246.165 224.048 254.113C237.525 262.062 244.046 268.509 247.663 275.655V275.655Z" fill="black"/>
<path d="M152.409 195.112C151.894 195.737 138.722 212.005 134.531 243.553C134.531 219.132 147.026 196.489 154.615 188.945C153.553 190.53 152.401 194.07 152.408 195.112" fill="black"/>
<path d="M172.855 202.959C172.855 202.959 169.526 198.575 165.359 195.308C161.193 192.04 158.019 190.708 158.019 190.708C158.019 190.708 160.326 193.541 165.019 197.242C169.712 200.944 172.855 202.959 172.855 202.959" fill="black"/>
<path d="M158.038 190.739C158.038 190.739 160.699 191.557 164.586 194.701C164.586 194.701 172.935 183.374 185.286 177.086C197.637 170.799 209.839 166.879 226.588 165.222C226.588 165.222 205.922 165.922 184.93 176.597C173.028 182.65 164.492 193.799 164.492 193.799C162.411 192.265 160.26 191.245 158.038 190.739" fill="black"/>
<path d="M347.268 210.949C347.268 210.949 349.54 213.914 352.36 225.304C354.504 233.962 354.969 242.47 354.969 242.47C354.969 242.47 353.15 224.766 347.108 211.528L347.268 210.949Z" fill="black"/>
<path d="M249.288 163.69C250.807 163.652 269.514 163.954 278.293 165.247C282.865 165.92 287.639 166.568 293.121 167.945C298.614 169.325 304.817 171.435 312.236 175.035C319.683 178.648 326.016 183.694 330.481 187.826C332.352 189.56 334.147 191.375 335.861 193.264C336.43 193.894 336.988 194.533 337.535 195.182L337.093 195.606C337.093 195.606 326.709 182.749 311.964 175.595C297.219 168.441 287.309 167.204 278.202 165.863C269.448 164.574 249.288 163.69 249.288 163.69V163.69Z" fill="black"/>
<path d="M194.81 319.542C223.928 333.375 282.391 332.554 307.427 319.542C281.105 335.412 223.607 336.234 194.81 319.542V319.542Z" fill="black"/>
<path d="M335.94 288.529H346.035C346.035 288.529 334.989 317.3 304.075 327.313C291.139 331.504 271.763 331.732 271.763 331.732C307.115 329.659 325.294 318.356 335.94 288.529V288.529Z" fill="black"/>
<path d="M256.347 266.952C256.347 266.952 265.588 247.539 287.486 236.563C293.252 233.673 302.904 231.356 302.904 231.356L297.286 233.468C290.999 235.729 286.011 237.416 279.649 242.019C268.723 249.923 262.168 256.96 256.498 266.787L256.347 266.952" fill="black"/>
<path d="M253.091 275.513C253.091 275.513 257.349 256.602 287.807 247.546C268.391 254.886 259.746 261.299 253.091 275.513V275.513Z" fill="black"/>
<path d="M249.935 289.478C249.707 289.11 249.402 288.523 249.053 287.623C248.355 285.818 247.48 282.997 245.719 279.447C243.94 275.858 241.269 271.548 236.999 266.81C233.452 262.874 229.756 259.397 225.968 256.433C237.726 263.67 243.499 269.635 246.774 276.106C249.008 280.52 250.007 284.37 250.007 288.213C250.007 288.748 249.979 289.165 249.935 289.478V289.478Z" fill="black"/>
<path d="M327.303 202.907L328.01 205.009C328.01 205.009 331.525 203.07 337.849 198.196C344.173 193.321 346.13 191.871 346.13 191.871C346.13 191.871 347.943 193.267 354.339 203.705C354.339 203.705 352.346 197.561 345.097 188.465L337.74 197.543L327.303 202.907Z" fill="black"/>
<path d="M227.828 241.863C217.642 230.904 210.459 228.417 197.417 223.749C184.892 219.266 179.729 212.222 178.75 210.736C179.34 211.127 179.933 211.516 180.526 211.903C196.221 222.141 214.438 224.505 227.828 241.863Z" fill="black"/>
<path d="M195.699 243.118C195.699 243.118 197.804 243.578 198.477 243.735C206.182 245.493 212.519 247.6 217.066 249.337C220.955 251.099 225.315 253.407 230.049 256.431C249.468 268.834 249.575 279.182 249.575 279.182C249.575 279.182 249.298 272.059 237.448 262.158C225.506 252.179 205.211 245.855 199.209 244.135C198.109 243.819 195.699 243.118 195.699 243.118V243.118Z" fill="black"/>
</svg>
