<svg width="500" height="500" viewBox="0 0 500 500" fill="none" xmlns="http://www.w3.org/2000/svg">
<path fill-rule="evenodd" clip-rule="evenodd" d="M364.884 249.85C364.884 313.381 313.38 364.885 249.849 364.885C186.313 364.885 134.814 313.381 134.814 249.85C134.814 186.32 186.313 134.815 249.849 134.815C313.38 134.815 364.884 186.32 364.884 249.85ZM249.849 365.697C218.904 365.697 189.811 353.644 167.933 331.766C146.05 309.888 134.002 280.795 134.002 249.85C134.002 218.905 146.05 189.818 167.933 167.934C189.811 146.056 218.904 134.003 249.849 134.003C280.794 134.003 309.887 146.056 331.765 167.934C353.643 189.818 365.696 218.905 365.696 249.85C365.696 280.795 353.643 309.888 331.764 331.766C309.887 353.644 280.794 365.697 249.849 365.697Z" fill="black"/>
<path d="M267.028 239.93L267.556 240.273C267.229 239.99 267.088 239.756 266.995 239.331L267.028 239.93Z" fill="black"/>
<path d="M134.491 249.848C134.491 313.558 186.137 365.204 249.848 365.204C313.558 365.204 365.204 313.558 365.204 249.848C365.204 186.143 313.558 134.496 249.848 134.496C186.137 134.496 134.491 186.143 134.491 249.848ZM148.337 249.848C148.337 193.782 193.783 148.337 249.848 148.337C305.913 148.337 351.364 193.782 351.364 249.848C351.364 305.913 305.913 351.363 249.848 351.363C193.783 351.363 148.337 305.913 148.337 249.848Z" fill="black"/>
<path d="M134.491 249.848C134.491 313.558 186.137 365.204 249.848 365.204C313.558 365.204 365.204 313.558 365.204 249.848C365.204 186.143 313.558 134.496 249.848 134.496C186.137 134.496 134.491 186.143 134.491 249.848ZM141.412 249.848C141.412 189.962 189.957 141.417 249.848 141.417C309.733 141.417 358.284 189.962 358.284 249.848C358.284 309.738 309.733 358.284 249.848 358.284C189.957 358.284 141.412 309.738 141.412 249.848Z" fill="black"/>
<path d="M249.847 135.074C311.726 135.074 361.89 185.233 361.89 247.107C361.89 308.986 311.726 359.15 249.847 359.15V365.204C313.557 365.204 365.203 313.558 365.203 249.848C365.203 186.143 313.557 134.496 249.847 134.496V135.074Z" fill="black"/>
<path d="M147.296 254.871C143.885 310.337 195.836 357.422 249.842 357.422L249.847 357.417V351.363C193.782 351.363 148.337 305.912 148.337 249.847C148.337 243.461 148.925 237.211 150.053 231.146C148.255 238.758 147.797 246.719 147.296 254.871" fill="black"/>
<path d="M249.27 140.55H249.161C195.101 140.545 147.367 181.756 140.659 236.296C140.419 238.208 140.354 239.194 140.158 240.546C139.782 243.101 139.733 244.491 137.989 246.246C136.305 247.929 135.134 249.853 135.254 256.201C135.395 263.89 138.18 281.877 147.416 299.548C156.118 316.201 170.64 331.022 188.469 340.405C156.636 317.617 141.411 282.111 141.411 249.847C141.411 189.962 189.957 141.411 249.847 141.411V140.55H249.27Z" fill="black"/>
<path d="M243.793 141.585V142.283C298.709 142.283 344.328 182.007 350.856 235.157C351.27 238.028 352.349 240.671 353.771 242.093C355.341 243.657 356.594 246.186 356.594 250.801C356.594 309.52 308.68 357.417 249.269 357.417V358.278L249.847 358.284C309.732 358.284 358.283 309.733 358.283 249.847C358.283 189.962 309.732 141.411 249.847 141.411L243.793 141.585Z" fill="black"/>
<path d="M134.491 249.848C134.491 313.558 186.137 365.204 249.848 365.204C313.558 365.204 365.204 313.558 365.204 249.848C365.204 186.143 313.558 134.496 249.848 134.496C186.137 134.496 134.491 186.143 134.491 249.848ZM135.172 249.848C135.172 186.519 186.519 135.177 249.848 135.177C313.182 135.177 364.529 186.519 364.529 249.848C364.529 313.187 313.182 364.528 249.848 364.528C186.519 364.528 135.172 313.187 135.172 249.848Z" fill="black"/>
<path d="M147.66 249.853C147.66 306.283 193.411 352.039 249.846 352.039C306.282 352.039 352.033 306.283 352.033 249.853C352.033 193.417 306.282 147.667 249.846 147.667C193.411 147.667 147.66 193.417 147.66 249.853ZM148.336 249.853C148.336 193.782 193.781 148.337 249.846 148.337C305.912 148.337 351.362 193.782 351.362 249.853C351.362 305.913 305.912 351.363 249.846 351.363C193.781 351.363 148.336 305.913 148.336 249.853Z" fill="black"/>
<mask id="mask0_226_663" style="mask-type:alpha" maskUnits="userSpaceOnUse" x="134" y="134" width="232" height="232">
<path d="M134 366H366V134H134V366Z" fill="white"/>
</mask>
<g mask="url(#mask0_226_663)">
<path d="M249.847 144.876V251.056L267.082 241.106L253.999 148.423C253.999 148.423 252.707 146.352 249.847 144.876" fill="black"/>
<path d="M249.847 144.876L249.852 251.023C249.961 250.953 266.973 241.003 266.935 240.545C266.935 240.507 253.972 148.423 253.972 148.412C253.966 148.401 252.675 146.336 249.847 144.876" fill="black"/>
<path d="M249.847 144.876L249.863 250.996C250.075 250.844 266.864 240.894 266.793 239.984C266.788 239.907 253.939 148.423 253.939 148.401C253.934 148.385 252.647 146.32 249.847 144.876" fill="black"/>
<path d="M249.847 144.876L249.868 250.963C250.19 250.74 266.755 240.785 266.651 239.422C266.641 239.302 253.912 148.423 253.912 148.39C253.906 148.363 252.615 146.303 249.847 144.876Z" fill="black"/>
<path d="M249.847 144.876L249.874 250.936C250.304 250.631 266.652 240.681 266.504 238.855C266.494 238.703 253.884 148.423 253.879 148.379C253.873 148.341 252.582 146.287 249.847 144.876Z" fill="black"/>
<path d="M249.847 144.876L249.879 250.903C250.413 250.527 266.543 240.572 266.363 238.294C266.346 238.098 253.852 148.423 253.846 148.368C253.841 148.325 252.549 146.271 249.847 144.876" fill="black"/>
<path d="M249.847 144.876L249.885 250.871C250.528 250.424 266.434 240.469 266.221 237.733C266.199 237.499 253.825 148.418 253.819 148.363C253.808 148.303 252.522 146.255 249.847 144.876Z" fill="black"/>
<path d="M249.847 144.876L249.89 250.844C250.642 250.315 266.33 240.36 266.074 237.167C266.058 236.894 253.797 148.418 253.786 148.352C253.781 148.282 252.489 146.238 249.847 144.876Z" fill="black"/>
<path d="M249.847 144.877L249.896 250.812C250.751 250.207 266.221 240.252 265.932 236.606C265.905 236.296 253.77 148.419 253.759 148.342C253.748 148.261 252.457 146.223 249.847 144.877Z" fill="black"/>
<path d="M249.847 144.876L249.901 250.778C250.866 250.103 266.112 240.147 265.791 236.044C265.763 235.695 253.743 148.418 253.726 148.331C253.716 148.243 252.424 146.205 249.847 144.876Z" fill="black"/>
<path d="M249.847 144.876L249.912 250.751C250.98 249.999 266.003 240.038 265.649 235.483C265.616 235.09 253.71 148.418 253.694 148.32C253.683 148.221 252.397 146.189 249.847 144.876" fill="black"/>
<path d="M249.847 144.876L249.918 250.718C251.095 249.89 265.9 239.929 265.502 234.916C265.469 234.491 253.683 148.418 253.666 148.309C253.65 148.2 252.364 146.173 249.847 144.876" fill="black"/>
<path d="M249.847 144.876L249.923 250.686C251.209 249.786 265.791 239.826 265.36 234.355C265.322 233.886 253.65 148.412 253.639 148.298C253.623 148.183 252.331 146.156 249.847 144.876Z" fill="black"/>
<path d="M249.847 144.876L249.928 250.658C251.318 249.677 265.682 239.717 265.218 233.793C265.175 233.287 253.623 148.412 253.607 148.287C253.59 148.161 252.299 146.14 249.847 144.876Z" fill="black"/>
<path d="M249.847 144.876L249.934 250.626C251.432 249.574 265.573 239.608 265.071 233.227C265.028 232.688 253.596 148.412 253.574 148.276C253.557 148.14 252.266 146.124 249.847 144.876Z" fill="black"/>
<path d="M249.847 144.876L249.939 250.593C251.547 249.465 265.464 239.504 264.93 232.666C264.881 232.083 253.563 148.412 253.547 148.265C253.525 148.124 252.239 146.108 249.847 144.876Z" fill="black"/>
<path d="M249.847 144.876L249.945 250.566C251.661 249.362 265.36 239.395 264.783 232.105C264.739 231.483 253.536 148.412 253.514 148.254C253.492 148.102 252.206 146.091 249.847 144.876Z" fill="black"/>
<path d="M249.847 144.877L249.956 250.534C251.77 249.254 265.251 239.293 264.641 231.539C264.592 230.879 253.508 148.413 253.487 148.244C253.465 148.081 252.173 146.076 249.847 144.877" fill="black"/>
<path d="M249.847 144.876L249.961 250.5C251.885 249.149 265.142 239.183 264.499 230.977C264.445 230.279 253.476 148.412 253.454 148.233C253.432 148.064 252.141 146.058 249.847 144.876" fill="black"/>
<path d="M249.847 144.876L249.967 250.473C251.999 249.045 265.033 239.074 264.352 230.415C264.298 229.68 253.448 148.407 253.427 148.227C253.399 148.042 252.113 146.042 249.847 144.876" fill="black"/>
<path d="M249.847 144.876L249.972 250.44C252.113 248.936 264.93 238.97 264.21 229.854C264.15 229.075 253.421 148.407 253.394 148.216C253.367 148.02 252.081 146.026 249.847 144.876Z" fill="black"/>
<path d="M249.847 144.876L249.977 250.408C252.228 248.833 264.821 238.861 264.069 229.287C264.003 228.475 253.394 148.407 253.361 148.205C253.334 147.998 252.048 146.009 249.847 144.876" fill="black"/>
<path d="M249.847 144.876L249.983 250.38C252.337 248.724 264.712 238.752 263.927 228.726C263.856 227.87 253.361 148.407 253.334 148.194C253.301 147.982 252.015 145.993 249.847 144.876Z" fill="black"/>
<path d="M249.847 144.876L249.988 250.348C252.451 248.62 264.608 238.649 263.78 228.165C263.709 227.271 253.334 148.407 253.301 148.183C253.274 147.96 251.988 145.976 249.847 144.876Z" fill="black"/>
<path d="M249.847 144.876L249.999 250.315C252.566 248.511 264.499 238.54 263.638 227.603C263.562 226.666 253.301 148.407 253.274 148.172C253.241 147.938 251.955 145.96 249.847 144.876Z" fill="black"/>
<path d="M249.847 144.876L249.999 250.288C252.675 248.408 264.39 238.431 263.497 227.037C263.415 226.067 253.274 148.407 253.241 148.162C253.209 147.922 251.923 145.949 249.847 144.876Z" fill="black"/>
<path d="M249.847 144.877L250.01 250.256C252.789 248.3 264.281 238.328 263.349 226.476C263.273 225.468 253.247 148.402 253.214 148.151C253.181 147.901 251.89 145.928 249.847 144.877" fill="black"/>
<path d="M249.847 144.876L250.016 250.228C252.904 248.196 264.172 238.218 263.208 225.914C263.126 224.863 253.22 148.401 253.182 148.14C253.149 147.878 251.857 145.911 249.847 144.876Z" fill="black"/>
<path d="M249.847 144.877L250.021 250.197C253.018 248.093 264.069 238.111 263.066 225.349C262.979 224.265 253.187 148.403 253.154 148.13C253.116 147.858 251.83 145.896 249.847 144.877" fill="black"/>
<path d="M249.847 144.876L250.026 250.163C253.132 247.983 263.96 238.006 262.919 224.786C262.832 223.664 253.16 148.401 253.121 148.124C253.083 147.84 251.797 145.879 249.847 144.876Z" fill="black"/>
<path d="M249.847 144.876L250.032 250.135C253.241 247.879 263.851 237.897 262.777 224.225C262.685 223.059 253.133 148.401 253.094 148.112C253.051 147.818 251.765 145.862 249.847 144.876Z" fill="black"/>
<path d="M249.847 144.876L250.037 250.103C253.356 247.77 263.742 237.793 262.636 223.664C262.537 222.459 253.1 148.401 253.062 148.102C253.018 147.802 251.732 145.846 249.847 144.876" fill="black"/>
<path d="M249.847 144.876L250.048 250.07C253.47 247.667 263.638 237.684 262.489 223.097C262.39 221.855 253.072 148.401 253.029 148.091C252.991 147.78 251.705 145.835 249.847 144.876Z" fill="black"/>
<path d="M249.847 144.877L250.048 250.038C253.585 247.559 263.529 237.576 262.347 222.537C262.243 221.256 253.045 148.402 253.002 148.081C252.958 147.759 251.672 145.814 249.847 144.877" fill="black"/>
<path d="M249.847 144.876L250.059 250.01C253.694 247.455 263.42 237.472 262.205 221.969C262.102 220.651 253.018 148.396 252.969 148.069C252.925 147.737 251.639 145.797 249.847 144.876Z" fill="black"/>
<path d="M249.847 144.877L250.065 249.978C253.808 247.346 263.317 237.363 262.058 221.409C261.954 220.052 252.985 148.397 252.942 148.059C252.893 147.721 251.607 145.781 249.847 144.877" fill="black"/>
<path d="M249.847 144.876L250.07 249.95C253.922 247.242 263.208 237.254 261.916 220.847C261.807 219.452 252.958 148.396 252.909 148.047C252.86 147.699 251.579 145.77 249.847 144.876" fill="black"/>
<path d="M249.847 144.876L250.075 249.917C254.037 247.138 263.099 237.15 261.769 220.285C261.66 218.846 252.931 148.396 252.882 148.036C252.827 147.676 251.547 145.753 249.847 144.876Z" fill="black"/>
<path d="M249.847 144.876L250.081 249.885C254.151 247.029 262.99 237.041 261.627 219.719C261.513 218.248 252.898 148.396 252.849 148.026C252.8 147.655 251.514 145.737 249.847 144.876" fill="black"/>
<path d="M249.847 144.876L250.086 249.857C254.26 246.926 262.881 236.938 261.486 219.157C261.366 217.643 252.871 148.396 252.822 148.015C252.767 147.639 251.481 145.72 249.847 144.876Z" fill="black"/>
<path d="M249.847 144.876L250.092 249.825C254.375 246.817 262.777 236.829 261.344 218.596C261.219 217.043 252.844 148.396 252.789 148.004C252.735 147.617 251.449 145.704 249.847 144.876Z" fill="black"/>
<path d="M249.847 144.876L250.103 249.792C254.489 246.713 262.668 236.72 261.197 218.029C261.072 216.438 252.811 148.396 252.756 147.998C252.707 147.595 251.421 145.688 249.847 144.876" fill="black"/>
<path d="M249.847 144.877L250.108 249.766C254.604 246.605 262.559 236.612 261.055 217.469C260.93 215.84 252.784 148.391 252.729 147.988C252.675 147.579 251.389 145.672 249.847 144.877Z" fill="black"/>
<path d="M249.847 144.876L250.114 249.732C254.713 246.501 262.45 236.508 260.914 216.907C260.783 215.24 252.756 148.391 252.696 147.977C252.642 147.557 251.356 145.655 249.847 144.876" fill="black"/>
<path d="M249.847 144.877L250.119 249.7C254.827 246.393 262.347 236.399 260.767 216.341C260.636 214.635 252.724 148.391 252.669 147.966C252.609 147.536 251.323 145.64 249.847 144.877" fill="black"/>
<path d="M249.847 144.876L250.125 249.672C254.942 246.288 262.238 236.295 260.625 215.779C260.489 214.036 252.697 148.391 252.637 147.955C252.577 147.519 251.296 145.623 249.847 144.876Z" fill="black"/>
<path d="M249.847 144.876L250.13 249.639C255.056 246.184 262.129 236.185 260.483 215.217C260.342 213.43 252.669 148.39 252.609 147.943C252.544 147.497 251.263 145.606 249.847 144.876Z" fill="black"/>
<path d="M249.847 144.877L250.135 249.613C255.17 246.077 262.02 236.078 260.336 214.658C260.194 212.832 252.637 148.392 252.577 147.934C252.517 147.476 251.231 145.591 249.847 144.877" fill="black"/>
<path d="M249.847 144.875L250.141 249.579C255.279 245.972 261.916 235.973 260.194 214.089C260.047 212.226 252.609 148.39 252.544 147.921C252.484 147.458 251.198 145.573 249.847 144.875Z" fill="black"/>
<path d="M249.847 144.877L250.152 249.548C255.394 245.864 261.807 235.865 260.053 213.53C259.9 211.628 252.582 148.386 252.517 147.912C252.451 147.438 251.171 145.558 249.847 144.877Z" fill="black"/>
<path d="M249.847 144.876L250.157 249.52C255.508 245.76 261.698 235.755 259.906 212.967C259.753 211.027 252.549 148.385 252.484 147.9C252.419 147.415 251.138 145.541 249.847 144.876Z" fill="black"/>
<path d="M249.847 144.876L250.163 249.487C255.623 245.656 261.595 235.652 259.764 212.4C259.606 210.422 252.522 148.385 252.457 147.889C252.386 147.393 251.105 145.524 249.847 144.876Z" fill="black"/>
<path d="M249.847 144.876L250.168 249.454C255.737 245.547 261.486 235.543 259.622 211.839C259.464 209.823 252.495 148.385 252.424 147.878C252.353 147.377 251.073 145.508 249.847 144.876Z" fill="black"/>
<path d="M249.847 144.876L250.174 249.427C255.846 245.443 261.377 235.434 259.475 211.278C259.317 209.224 252.468 148.385 252.397 147.867C252.326 147.355 251.04 145.491 249.847 144.876Z" fill="black"/>
<path d="M249.847 144.877L250.179 249.396C255.961 245.336 261.268 235.331 259.333 210.713C259.17 208.62 252.435 148.386 252.364 147.858C252.293 147.335 251.013 145.477 249.847 144.877Z" fill="black"/>
<path d="M249.847 144.876L250.184 249.367C256.075 245.231 261.164 235.221 259.192 210.15C259.023 208.019 252.408 148.385 252.337 147.851C252.261 147.317 250.98 145.459 249.847 144.876" fill="black"/>
<path d="M249.847 144.877L250.195 249.335C256.189 245.123 261.055 235.113 259.045 209.59C258.876 207.416 252.38 148.381 252.304 147.841C252.228 147.296 250.947 145.444 249.847 144.877" fill="black"/>
<path d="M249.847 144.876L250.201 249.301C256.298 245.018 260.946 235.008 258.903 209.027C258.729 206.815 252.348 148.379 252.277 147.829C252.201 147.273 250.92 145.426 249.847 144.876" fill="black"/>
<path d="M249.847 144.876L250.206 249.274C256.413 244.915 260.837 234.9 258.761 208.461C258.581 206.21 252.321 148.38 252.244 147.818C252.168 147.257 250.882 145.41 249.847 144.876" fill="black"/>
<path d="M249.847 144.875L250.212 249.241C256.527 244.806 260.728 234.796 258.614 207.899C258.434 205.611 252.293 148.379 252.212 147.807C252.135 147.235 250.855 145.393 249.847 144.875" fill="black"/>
<path d="M249.847 144.876L250.217 249.209C256.642 244.703 260.625 234.687 258.473 207.338C258.287 205.012 252.261 148.38 252.184 147.797C252.103 147.213 250.822 145.377 249.847 144.876Z" fill="black"/>
<path d="M249.847 144.876L250.223 249.182C256.751 244.594 260.516 234.578 258.331 206.772C258.14 204.407 252.233 148.38 252.152 147.786C252.075 147.197 250.789 145.361 249.847 144.876" fill="black"/>
<path d="M249.847 144.876L250.228 249.149C256.865 244.49 260.407 234.475 258.184 206.21C257.998 203.807 252.206 148.379 252.124 147.775C252.043 147.175 250.762 145.344 249.847 144.876" fill="black"/>
<path d="M249.847 144.877L250.239 249.118C256.979 244.382 260.298 234.367 258.042 205.651C257.851 203.204 252.179 148.375 252.092 147.765C252.01 147.155 250.729 145.329 249.847 144.877" fill="black"/>
<path d="M249.847 144.876L250.244 249.089C257.094 244.277 260.194 234.257 257.9 205.088C257.704 202.603 252.146 148.374 252.064 147.753C251.977 147.132 250.697 145.312 249.847 144.876" fill="black"/>
<path d="M249.847 144.877L250.25 249.058C257.203 244.17 260.085 234.154 257.753 204.522C257.557 202 252.119 148.375 252.032 147.743C251.945 147.117 250.664 145.297 249.847 144.877Z" fill="black"/>
<path d="M249.847 144.876L250.255 249.023C257.317 244.065 259.976 234.044 257.612 203.96C257.41 201.399 252.092 148.374 252.004 147.736C251.912 147.093 250.631 145.279 249.847 144.876Z" fill="black"/>
<path d="M249.847 144.876L250.261 248.997C257.432 243.962 259.873 233.935 257.47 203.399C257.263 200.8 252.059 148.374 251.972 147.72C251.885 147.072 250.604 145.263 249.847 144.876Z" fill="black"/>
<path d="M249.847 144.875L250.266 248.963C257.546 243.852 259.764 233.831 257.323 202.837C257.116 200.194 252.032 148.374 251.939 147.714C251.852 147.055 250.571 145.246 249.847 144.875Z" fill="black"/>
<path d="M249.847 144.876L250.272 248.937C257.661 243.749 259.655 233.723 257.181 202.271C256.969 199.595 252.004 148.374 251.912 147.704C251.819 147.034 250.539 145.235 249.847 144.876" fill="black"/>
<path d="M249.847 144.876L250.277 248.904C257.769 243.64 259.546 233.614 257.039 201.71C256.827 198.99 251.972 148.369 251.879 147.693C251.786 147.012 250.506 145.219 249.847 144.876Z" fill="black"/>
<path d="M249.847 144.876L250.288 248.871C257.884 243.536 259.437 233.51 256.892 201.148C256.68 198.391 251.944 148.369 251.852 147.682C251.759 146.996 250.473 145.197 249.847 144.876Z" fill="black"/>
<path d="M249.847 144.876L250.294 248.839C257.998 243.428 259.333 233.402 256.751 200.582C256.533 197.792 251.917 148.369 251.819 147.672C251.727 146.974 250.441 145.187 249.847 144.876Z" fill="black"/>
<path d="M249.847 144.876L250.299 248.811C258.113 243.324 259.224 233.298 256.609 200.02C256.386 197.187 251.89 148.369 251.792 147.66C251.694 146.952 250.413 145.164 249.847 144.876Z" fill="black"/>
<path d="M249.847 144.877L250.304 248.78C258.222 243.216 259.116 233.19 256.467 199.46C256.238 196.589 251.857 148.37 251.759 147.651C251.661 146.931 250.381 145.15 249.847 144.877Z" fill="black"/>
<path d="M249.847 144.876L250.31 248.746C258.336 243.111 259.006 233.08 256.32 198.892C256.091 195.982 251.83 148.368 251.732 147.638C251.629 146.914 250.353 145.137 249.847 144.876" fill="black"/>
<path d="M249.847 144.876L250.315 248.719C258.451 243.008 258.903 232.976 256.178 198.331C255.944 195.383 251.803 148.369 251.699 147.633C251.601 146.892 250.321 145.121 249.847 144.876" fill="black"/>
<path d="M249.847 144.876L250.321 248.686C258.565 242.899 258.794 232.867 256.031 197.77C255.797 194.783 251.77 148.368 251.667 147.616C251.568 146.87 250.288 145.104 249.847 144.876Z" fill="black"/>
<path d="M249.847 144.876L250.332 248.659C258.674 242.796 258.685 232.758 255.89 197.209C255.65 194.179 251.743 148.363 251.639 147.606C251.536 146.854 250.255 145.088 249.847 144.876Z" fill="black"/>
<path d="M249.847 144.876L250.337 248.626C258.789 242.687 258.582 232.655 255.748 196.642C255.503 193.58 251.716 148.363 251.607 147.6C251.503 146.832 250.223 145.072 249.847 144.876Z" fill="black"/>
<path d="M249.847 144.876L250.343 248.593C258.903 242.583 258.473 232.546 255.601 196.081C255.361 192.975 251.683 148.363 251.579 147.589C251.47 146.81 250.195 145.056 249.847 144.876Z" fill="black"/>
<path d="M249.847 144.876L250.348 248.566C259.017 242.474 258.364 232.442 255.459 195.519C255.214 192.375 251.656 148.363 251.547 147.579C251.443 146.794 250.163 145.039 249.847 144.876" fill="black"/>
<path d="M249.847 144.876L250.353 248.533C259.132 242.37 258.255 232.333 255.318 194.953C255.067 191.77 251.629 148.363 251.52 147.568C251.411 146.772 250.13 145.023 249.847 144.876Z" fill="black"/>
<path d="M249.847 144.876L250.359 248.5C259.246 242.261 258.146 232.224 255.176 194.391C254.92 191.171 251.596 148.363 251.487 147.557C251.378 146.75 250.097 145.007 249.847 144.876" fill="black"/>
<path d="M249.847 144.876L250.364 248.473C259.355 242.158 258.042 232.121 255.029 193.83C254.773 190.571 251.569 148.363 251.46 147.546C251.345 146.728 250.065 144.99 249.847 144.876" fill="black"/>
<path d="M249.847 144.876L250.37 248.441C259.47 242.055 257.933 232.012 254.887 193.269C254.625 189.967 251.536 148.364 251.427 147.535C251.312 146.712 250.037 144.974 249.847 144.876Z" fill="black"/>
<path d="M249.847 144.876L250.381 248.408C259.584 241.945 257.824 231.903 254.74 192.702C254.478 189.367 251.509 148.358 251.394 147.524C251.285 146.69 250.005 144.957 249.847 144.876" fill="black"/>
<path d="M249.847 144.876L250.386 248.381C259.693 241.842 257.715 231.799 254.598 192.141C254.331 188.763 251.481 148.358 251.367 147.513C251.252 146.669 249.972 144.941 249.847 144.876" fill="black"/>
<path d="M249.847 144.875L250.392 248.348C259.808 241.732 257.612 231.69 254.457 191.579C254.184 188.163 251.454 148.357 251.334 147.502C251.22 146.652 249.939 144.925 249.847 144.875Z" fill="black"/>
<path d="M249.847 144.876L250.397 248.315C259.922 241.629 257.503 231.581 254.309 191.013C254.042 187.564 251.421 148.358 251.307 147.491C251.187 146.631 249.912 144.909 249.847 144.876" fill="black"/>
<path d="M249.847 144.876L250.402 248.288C260.036 241.52 257.394 231.478 254.168 190.452C253.895 186.959 251.394 148.358 251.274 147.48C251.154 146.609 249.879 144.892 249.847 144.876" fill="black"/>
<path d="M251.246 147.474C251.126 146.591 249.846 144.874 249.846 144.874L250.407 248.254C260.15 241.415 257.289 231.373 254.025 189.889C253.747 186.358 251.366 148.356 251.246 147.474Z" fill="black"/>
<path d="M249.847 249.924V269.747L292.725 286.966L335.604 304.191L340.693 302.365L295.27 276.145L272.558 263.034L249.847 249.924Z" fill="black"/>
<path d="M249.847 249.924V250.681C249.863 250.752 250.005 269.72 250.141 269.807C250.277 269.9 292.812 287.005 292.812 287.005L334.558 303.771C334.558 303.771 335.609 304.191 335.62 304.191C335.626 304.191 340.677 302.382 340.693 302.365C340.693 302.365 326.51 294.181 326.417 294.127C326.319 294.072 295.395 276.215 295.27 276.145C295.183 276.096 272.635 263.078 272.558 263.034L249.847 249.924" fill="black"/>
<path d="M249.847 249.924V250.692C249.879 250.823 250.163 269.687 250.435 269.873C250.708 270.053 292.905 287.043 292.905 287.043L334.569 303.777C334.569 303.777 335.615 304.191 335.626 304.191C335.648 304.185 340.661 302.393 340.693 302.371C340.693 302.365 326.602 294.235 326.417 294.127C326.226 294.018 295.521 276.292 295.27 276.145C295.096 276.047 272.711 263.121 272.558 263.034C272.27 262.871 249.847 249.924 249.847 249.924Z" fill="black"/>
<path d="M249.847 249.924V250.698C249.896 250.899 250.321 269.66 250.729 269.933C251.133 270.2 292.992 287.075 292.992 287.075L334.579 303.782C334.579 303.782 335.62 304.191 335.637 304.185C335.669 304.18 340.639 302.404 340.693 302.371C340.693 302.366 326.695 294.29 326.417 294.127C326.134 293.963 295.641 276.363 295.265 276.145C295.008 275.992 272.787 263.165 272.558 263.034C272.128 262.789 249.847 249.924 249.847 249.924" fill="black"/>
<path d="M249.847 249.924V250.703C249.918 250.97 250.479 269.633 251.018 269.993C251.563 270.352 293.085 287.114 293.085 287.114L334.596 303.788C334.596 303.788 335.62 304.191 335.648 304.185C335.691 304.18 340.623 302.415 340.693 302.371C340.693 302.366 326.793 294.345 326.417 294.127C326.041 293.909 295.766 276.433 295.265 276.145C294.921 275.943 272.864 263.209 272.558 263.034C271.986 262.702 249.847 249.924 249.847 249.924" fill="black"/>
<path d="M249.847 249.924V250.714C249.934 251.046 250.631 269.606 251.312 270.058C251.994 270.505 293.172 287.152 293.172 287.152L334.607 303.788C334.607 303.788 335.626 304.191 335.658 304.185C335.713 304.175 340.606 302.425 340.693 302.371C340.693 302.366 326.885 294.394 326.417 294.127C325.948 293.854 295.891 276.504 295.265 276.145C294.834 275.894 272.934 263.252 272.558 263.034C271.839 262.62 249.847 249.924 249.847 249.924" fill="black"/>
<path d="M249.847 249.924V250.719C249.95 251.123 250.789 269.573 251.607 270.118C252.419 270.657 293.265 287.184 293.265 287.184L334.618 303.793C334.618 303.793 335.631 304.191 335.669 304.185C335.735 304.169 340.59 302.436 340.693 302.371C340.693 302.366 326.978 294.453 326.417 294.127C325.856 293.8 296.011 276.575 295.265 276.145C294.747 275.845 273.011 263.296 272.558 263.034C271.697 262.538 249.847 249.924 249.847 249.924" fill="black"/>
<path d="M249.847 249.924V250.725C249.967 251.193 250.947 269.546 251.901 270.178C252.849 270.81 293.352 287.222 293.352 287.222L334.629 303.799C334.629 303.799 335.637 304.191 335.68 304.18C335.751 304.169 340.568 302.447 340.693 302.371C325.552 293.627 310.409 284.884 295.265 276.145C294.66 275.79 273.087 263.339 272.558 263.034C271.556 262.457 249.847 249.924 249.847 249.924" fill="black"/>
<path d="M249.847 249.924V250.736C249.983 251.27 251.105 269.518 252.19 270.238C253.28 270.962 293.439 287.261 293.439 287.261L334.64 303.804C334.64 303.804 335.637 304.191 335.691 304.18C335.773 304.164 340.552 302.463 340.693 302.371C340.688 302.365 327.169 294.557 326.417 294.126C325.665 293.696 296.262 276.717 295.265 276.139C294.573 275.741 273.163 263.383 272.558 263.034C271.409 262.375 249.847 249.924 249.847 249.924" fill="black"/>
<path d="M249.847 249.924V250.741C249.999 251.346 251.263 269.491 252.484 270.303C253.71 271.115 293.532 287.293 293.532 287.293L334.65 303.809C334.65 303.809 335.642 304.191 335.702 304.18C335.795 304.158 340.535 302.469 340.693 302.371C340.688 302.365 327.256 294.611 326.417 294.126C325.572 293.641 296.387 276.788 295.265 276.139C294.485 275.692 273.239 263.426 272.553 263.034C271.267 262.293 249.847 249.924 249.847 249.924" fill="black"/>
<path d="M249.847 249.924V250.746C250.021 251.417 251.421 269.464 252.778 270.363C254.135 271.268 293.619 287.331 293.619 287.331L334.661 303.815C334.661 303.815 335.648 304.191 335.713 304.18C335.816 304.158 340.514 302.485 340.693 302.371C340.688 302.365 327.354 294.666 326.417 294.126C325.48 293.587 296.507 276.858 295.259 276.139C294.398 275.643 273.316 263.47 272.553 263.034C271.125 262.206 249.847 249.924 249.847 249.924Z" fill="black"/>
<path d="M249.847 249.924V250.758C250.037 251.493 251.579 269.432 253.072 270.423C254.565 271.415 293.712 287.364 293.712 287.364L334.678 303.821C334.678 303.821 335.653 304.191 335.718 304.175C335.838 304.153 340.497 302.496 340.693 302.371C340.688 302.366 327.447 294.721 326.417 294.127C325.387 293.533 296.632 276.935 295.259 276.139C294.311 275.589 273.392 263.514 272.553 263.034C270.978 262.124 249.847 249.924 249.847 249.924Z" fill="black"/>
<path d="M249.847 249.924V250.763C250.054 251.564 251.732 269.404 253.367 270.489C254.996 271.568 293.799 287.403 293.799 287.403L334.689 303.821C334.689 303.821 335.653 304.191 335.735 304.175C335.855 304.148 340.481 302.507 340.693 302.371C340.688 302.366 327.539 294.775 326.417 294.127C325.289 293.478 296.758 277.006 295.259 276.139C294.218 275.54 273.468 263.557 272.553 263.034C270.836 262.043 249.847 249.924 249.847 249.924" fill="black"/>
<path d="M249.847 249.924V250.769C250.07 251.64 251.89 269.377 253.661 270.549C255.426 271.72 293.886 287.441 293.886 287.441L334.699 303.826C334.699 303.826 335.658 304.191 335.74 304.175C335.876 304.148 340.459 302.518 340.693 302.371C340.688 302.366 327.632 294.83 326.417 294.127C325.196 293.424 296.877 277.077 295.259 276.139C294.137 275.491 273.545 263.601 272.553 263.034L249.847 249.924Z" fill="black"/>
<path d="M249.847 249.924V250.78C250.086 251.717 252.048 269.35 253.95 270.609C255.851 271.873 293.979 287.474 293.979 287.474L334.71 303.832C334.71 303.832 335.664 304.191 335.751 304.169C335.898 304.142 340.443 302.529 340.693 302.371C340.688 302.366 327.73 294.884 326.417 294.127C325.104 293.369 297.003 277.148 295.259 276.139C294.049 275.442 273.615 263.645 272.553 263.035C270.548 261.874 249.847 249.924 249.847 249.924Z" fill="black"/>
<path d="M249.847 249.924V250.785C250.103 251.788 252.206 269.323 254.244 270.674C256.282 272.025 294.066 287.512 294.066 287.512L334.721 303.837C334.721 303.837 335.669 304.191 335.762 304.169C335.92 304.137 340.426 302.54 340.693 302.371C340.688 302.366 327.823 294.939 326.417 294.127L295.259 276.139C293.962 275.388 273.692 263.688 272.553 263.029C270.406 261.792 249.847 249.924 249.847 249.924Z" fill="black"/>
<path d="M249.847 249.924V250.79C250.125 251.864 252.364 269.29 254.538 270.734C256.712 272.178 294.158 287.55 294.158 287.55L334.732 303.842C334.732 303.842 335.669 304.191 335.773 304.169C335.942 304.137 340.41 302.551 340.693 302.371C340.688 302.366 327.915 294.993 326.417 294.127C324.913 293.26 297.253 277.289 295.259 276.139C293.87 275.338 273.768 263.732 272.553 263.029C270.264 261.71 249.847 249.924 249.847 249.924" fill="black"/>
<path d="M249.847 249.924V250.801C250.141 251.935 252.522 269.263 254.832 270.794C257.137 272.331 294.246 287.582 294.246 287.582L334.743 303.848C334.743 303.848 335.675 304.191 335.784 304.169C335.964 304.131 340.388 302.567 340.693 302.371C340.682 302.366 328.008 295.048 326.417 294.127C324.82 293.206 297.373 277.365 295.259 276.139C293.782 275.289 273.844 263.776 272.553 263.029C270.117 261.629 249.847 249.924 249.847 249.924" fill="black"/>
<path d="M249.847 249.924V250.807C250.157 252.011 252.68 269.236 255.127 270.859C257.568 272.478 294.333 287.621 294.333 287.621L334.759 303.853C334.759 303.853 335.675 304.186 335.795 304.164C335.985 304.126 340.372 302.578 340.693 302.371C340.682 302.366 328.101 295.102 326.417 294.127C324.728 293.151 297.499 277.436 295.254 276.139C293.695 275.24 273.921 263.819 272.553 263.029C269.975 261.547 249.847 249.924 249.847 249.924Z" fill="black"/>
<path d="M249.847 249.924V250.818C250.174 252.087 252.838 269.203 255.416 270.919C257.998 272.63 294.425 287.653 294.425 287.653L334.77 303.853C334.77 303.853 335.68 304.186 335.806 304.164C336.002 304.126 340.356 302.589 340.693 302.371C340.682 302.366 328.193 295.157 326.417 294.127C324.635 293.097 297.624 277.507 295.254 276.139C293.608 275.186 273.997 263.868 272.553 263.029L249.847 249.924Z" fill="black"/>
<path d="M249.847 249.924V250.823C250.19 252.158 252.996 269.176 255.71 270.979C258.429 272.783 294.513 287.691 294.513 287.691L334.781 303.859C334.781 303.859 335.686 304.186 335.817 304.164C336.024 304.12 340.334 302.6 340.693 302.371C340.682 302.366 328.291 295.211 326.417 294.127C324.542 293.042 297.744 277.578 295.254 276.139C293.521 275.137 274.073 263.912 272.547 263.029L249.847 249.924" fill="black"/>
<path d="M249.847 249.924V250.829C250.206 252.234 253.149 269.148 256.004 271.045C258.854 272.935 294.605 287.73 294.605 287.73L334.792 303.864C334.792 303.864 335.691 304.186 335.827 304.159C336.045 304.115 340.317 302.611 340.693 302.371C340.682 302.366 328.384 295.266 326.417 294.127C324.444 292.993 297.869 277.649 295.254 276.139C293.434 275.088 274.149 263.955 272.547 263.029L249.847 249.924" fill="black"/>
<path d="M249.847 249.924V250.834C250.223 252.311 253.307 269.121 256.298 271.104C259.284 273.088 294.692 287.762 294.692 287.762L334.803 303.87C334.803 303.87 335.691 304.186 335.838 304.158C336.067 304.115 340.301 302.622 340.693 302.371C340.682 302.366 328.477 295.32 326.417 294.127C324.352 292.939 297.995 277.72 295.248 276.139C293.347 275.039 274.22 263.999 272.547 263.029L249.847 249.924Z" fill="black"/>
<path d="M249.847 249.924V250.845C250.244 252.381 253.465 269.094 256.587 271.164C259.715 273.24 294.78 287.8 294.78 287.8L334.814 303.875C334.814 303.875 335.697 304.186 335.849 304.158C336.089 304.109 340.285 302.633 340.693 302.371C340.682 302.366 328.569 295.369 326.417 294.127C324.259 292.884 298.12 277.79 295.248 276.134C293.259 274.984 274.297 264.042 272.547 263.029L249.847 249.924" fill="black"/>
<path d="M249.847 249.924V250.85C250.261 252.458 253.623 269.061 256.881 271.23C260.145 273.393 294.872 287.833 294.872 287.833L334.825 303.88C334.825 303.88 335.702 304.186 335.855 304.153C336.111 304.104 340.263 302.643 340.693 302.371C340.682 302.366 328.662 295.423 326.417 294.127C324.166 292.83 298.24 277.861 295.248 276.134C293.172 274.935 274.373 264.08 272.547 263.029C269.114 261.051 249.847 249.924 249.847 249.924" fill="black"/>
<path d="M249.847 249.924V250.861C250.277 252.528 253.781 269.034 257.176 271.289C260.57 273.545 294.959 287.871 294.959 287.871L334.836 303.886C334.836 303.886 335.707 304.185 335.865 304.153C336.127 304.104 340.247 302.654 340.693 302.371C340.682 302.365 328.755 295.478 326.417 294.127C324.074 292.775 298.365 277.932 295.248 276.134C293.085 274.886 274.449 264.129 272.547 263.029C268.973 260.964 249.847 249.924 249.847 249.924" fill="black"/>
<path d="M249.847 249.924V250.866C250.294 252.605 253.939 269.006 257.47 271.349C261.001 273.693 295.052 287.909 295.052 287.909L334.852 303.886C334.852 303.886 335.707 304.185 335.876 304.153C336.149 304.098 340.23 302.671 340.693 302.371C340.677 302.365 328.853 295.532 326.411 294.127C323.976 292.721 298.485 278.008 295.248 276.134C292.998 274.837 274.525 264.173 272.547 263.029C268.831 260.882 249.847 249.924 249.847 249.924" fill="black"/>
<path d="M249.847 249.924V250.872C250.31 252.681 254.097 268.979 257.764 271.409C261.431 273.851 295.139 287.942 295.139 287.942L334.863 303.891C334.863 303.891 335.713 304.185 335.887 304.153C336.171 304.093 340.214 302.681 340.693 302.371C340.677 302.365 328.945 295.587 326.411 294.126C323.883 292.666 298.61 278.079 295.248 276.134C292.911 274.782 274.602 264.217 272.547 263.029C268.684 260.8 249.847 249.924 249.847 249.924Z" fill="black"/>
<path d="M249.847 249.924V250.877C250.332 252.752 254.255 268.946 258.053 271.475C261.862 273.998 295.226 287.98 295.226 287.98L334.874 303.897C334.874 303.897 335.718 304.186 335.898 304.147C336.192 304.093 340.192 302.693 340.693 302.371C340.677 302.366 329.038 295.641 326.411 294.127C323.79 292.612 298.736 278.15 295.248 276.134C292.823 274.733 274.678 264.26 272.547 263.029C268.542 260.718 249.847 249.924 249.847 249.924" fill="black"/>
<path d="M249.847 249.924V250.888C250.343 252.828 254.408 268.919 258.347 271.535C262.292 274.15 295.319 288.013 295.319 288.013L334.885 303.902C334.885 303.902 335.718 304.185 335.909 304.147C336.214 304.087 340.176 302.703 340.693 302.371C340.677 302.366 329.13 295.696 326.411 294.127C323.698 292.557 298.861 278.221 295.243 276.134C292.736 274.684 274.754 264.304 272.547 263.029L249.847 249.924Z" fill="black"/>
<path d="M249.847 249.924V250.894C250.364 252.899 254.565 268.892 258.641 271.595C262.717 274.303 295.406 288.051 295.406 288.051L334.896 303.908C334.896 303.908 335.724 304.185 335.92 304.147C336.231 304.082 340.159 302.714 340.693 302.376C340.677 302.36 329.223 295.75 326.411 294.126C323.6 292.503 298.986 278.292 295.243 276.134C292.649 274.635 274.825 264.347 272.547 263.029L249.847 249.924" fill="black"/>
<path d="M249.847 249.924V250.905C250.381 252.976 254.724 268.865 258.936 271.66C263.148 274.456 295.499 288.089 295.499 288.089L334.906 303.913C334.906 303.913 335.729 304.186 335.931 304.148C336.258 304.082 340.143 302.726 340.693 302.377C340.677 302.36 329.316 295.805 326.411 294.127C323.507 292.449 299.106 278.363 295.243 276.134C292.562 274.581 274.901 264.391 272.547 263.029L249.847 249.924" fill="black"/>
<path d="M249.847 249.924V250.91C250.397 253.046 254.882 268.838 259.23 271.72C263.578 274.608 295.586 288.122 295.586 288.122L334.917 303.919C334.917 303.919 335.735 304.186 335.942 304.142C336.274 304.077 340.121 302.736 340.693 302.377C340.677 302.36 329.414 295.86 326.411 294.127C323.414 292.394 299.231 278.434 295.243 276.134C292.475 274.532 274.978 264.435 272.547 263.029C267.965 260.386 249.847 249.924 249.847 249.924" fill="black"/>
<path d="M249.847 249.924V250.916C250.413 253.123 255.04 268.805 259.524 271.78C264.003 274.761 295.673 288.16 295.673 288.16L334.934 303.924C334.934 303.924 335.735 304.186 335.953 304.142C336.296 304.071 340.105 302.747 340.693 302.377C340.677 302.36 329.506 295.914 326.411 294.127C323.322 292.339 299.351 278.504 295.243 276.134C292.387 274.483 275.054 264.478 272.542 263.029L249.847 249.924Z" fill="black"/>
<path d="M249.847 249.924V250.921C250.43 253.199 255.198 268.778 259.813 271.846C264.434 274.908 295.766 288.193 295.766 288.193L334.945 303.924C334.945 303.924 335.74 304.186 335.964 304.142C336.318 304.071 340.089 302.758 340.693 302.377C340.677 302.36 329.599 295.968 326.411 294.127C323.229 292.29 299.477 278.575 295.243 276.134C292.3 274.434 275.13 264.522 272.542 263.029L249.847 249.924" fill="black"/>
<path d="M249.847 249.924V250.932C250.446 253.275 255.35 268.75 260.107 271.905C264.864 275.06 295.853 288.231 295.853 288.231L334.955 303.929C334.955 303.929 335.746 304.185 335.975 304.136C336.34 304.065 340.067 302.769 340.693 302.376C340.677 302.36 329.692 296.023 326.411 294.126C323.136 292.236 299.602 278.651 295.243 276.128C292.213 274.379 275.206 264.565 272.542 263.029C267.54 260.135 249.847 249.924 249.847 249.924" fill="black"/>
<path d="M249.847 249.924V250.938C250.468 253.346 255.514 268.723 260.401 271.965C265.289 275.213 295.946 288.269 295.946 288.269L334.966 303.935C334.966 303.935 335.751 304.186 335.98 304.137C336.361 304.06 340.05 302.785 340.693 302.377C340.672 302.36 329.79 296.078 326.411 294.127C323.038 292.181 299.727 278.722 295.237 276.129C292.126 274.33 275.283 264.609 272.542 263.029C267.393 260.054 249.847 249.924 249.847 249.924Z" fill="black"/>
<path d="M249.847 249.924V250.943C250.484 253.422 255.666 268.69 260.696 272.031C265.72 275.366 296.033 288.302 296.033 288.302L334.977 303.94C334.977 303.94 335.751 304.186 335.991 304.137C336.378 304.06 340.034 302.796 340.693 302.377C340.672 302.36 329.882 296.132 326.411 294.127C322.946 292.127 299.847 278.793 295.237 276.128C292.039 274.281 275.359 264.653 272.542 263.029C267.251 259.972 249.847 249.924 249.847 249.924" fill="black"/>
<path d="M249.847 249.924V250.954C250.501 253.493 255.824 268.663 260.985 272.091C266.15 275.518 296.12 288.34 296.12 288.34L334.988 303.946C334.988 303.946 335.757 304.185 336.002 304.136C336.4 304.055 340.012 302.807 340.693 302.376C340.672 302.36 329.975 296.186 326.411 294.127C322.853 292.072 299.973 278.864 295.237 276.128C291.946 274.232 275.435 264.696 272.542 263.029C267.109 259.89 249.847 249.924 249.847 249.924" fill="black"/>
<path d="M249.847 249.924V250.959C250.517 253.569 255.982 268.636 261.279 272.15C266.581 275.671 296.213 288.378 296.213 288.378L335.005 303.951C335.005 303.951 335.762 304.185 336.013 304.131C336.421 304.049 339.996 302.818 340.693 302.376C340.672 302.36 330.068 296.235 326.411 294.126C322.761 292.018 300.098 278.934 295.237 276.128C291.859 274.177 275.506 264.74 272.542 263.029C266.962 259.808 249.847 249.924 249.847 249.924Z" fill="black"/>
<path d="M249.847 249.924V250.97C250.533 253.645 256.14 268.609 261.573 272.216C267.006 275.823 296.3 288.41 296.3 288.41L335.01 303.951C335.01 303.951 335.767 304.185 336.024 304.131C336.443 304.049 339.98 302.829 340.693 302.376C340.672 302.36 330.16 296.295 326.411 294.126C322.662 291.963 300.218 279.005 295.232 276.128C291.772 274.128 275.582 264.783 272.542 263.029C266.82 259.721 249.847 249.924 249.847 249.924Z" fill="black"/>
<path d="M249.847 249.924V250.975C250.55 253.716 256.298 268.576 261.867 272.276C267.436 275.97 296.387 288.448 296.387 288.448L335.021 303.956C335.021 303.956 335.767 304.185 336.034 304.131C336.465 304.044 339.958 302.839 340.693 302.376C340.672 302.36 330.253 296.344 326.411 294.126C322.57 291.909 300.343 279.076 295.232 276.128C291.684 274.079 275.659 264.827 272.542 263.029C266.679 259.639 249.847 249.924 249.847 249.924" fill="black"/>
<path d="M249.847 249.924V250.981C250.566 253.793 256.456 268.549 262.161 272.336C267.867 276.123 296.48 288.487 296.48 288.487L335.037 303.962C335.037 303.962 335.773 304.186 336.045 304.131C336.487 304.038 339.941 302.851 340.693 302.376C340.672 302.36 330.351 296.399 326.411 294.127C322.477 291.854 300.468 279.147 295.232 276.128C291.597 274.025 275.735 264.871 272.542 263.029L249.847 249.924" fill="black"/>
<path d="M249.847 249.924V250.986C250.588 253.863 256.609 268.521 262.456 272.401C268.292 276.275 296.567 288.519 296.567 288.519L335.048 303.967C335.048 303.967 335.778 304.18 336.056 304.125C336.503 304.038 339.925 302.861 340.693 302.376C340.672 302.36 330.444 296.453 326.411 294.126C322.385 291.8 300.594 279.223 295.232 276.128C291.51 273.976 275.811 264.914 272.542 263.029L249.847 249.924" fill="black"/>
<path d="M249.847 249.924V250.997C250.604 253.94 256.772 268.494 262.745 272.461C268.722 276.428 296.66 288.558 296.66 288.558L335.059 303.973C335.059 303.973 335.778 304.18 336.067 304.126C336.525 304.033 339.909 302.872 340.693 302.376C340.672 302.36 330.536 296.508 326.411 294.127C322.292 291.745 300.714 279.294 295.232 276.128C291.423 273.927 275.888 264.958 272.542 263.029C266.243 259.389 249.847 249.924 249.847 249.924" fill="black"/>
<path d="M249.847 249.924V251.003C250.62 254.01 256.925 268.461 263.039 272.521C269.153 276.58 296.747 288.59 296.747 288.59L335.07 303.978C335.07 303.978 335.784 304.18 336.078 304.125C336.547 304.027 339.892 302.888 340.693 302.376C340.672 302.36 330.629 296.562 326.411 294.126C322.199 291.691 300.839 279.365 295.232 276.123C291.336 273.878 275.964 265.001 272.542 263.023C266.101 259.307 249.847 249.924 249.847 249.924Z" fill="black"/>
<path d="M249.847 249.924V251.008C250.637 254.087 257.083 268.434 263.333 272.586C269.583 276.733 296.839 288.628 296.839 288.628L335.081 303.984C335.081 303.984 335.789 304.18 336.089 304.12C336.568 304.027 339.871 302.899 340.693 302.376C340.672 302.36 330.722 296.617 326.411 294.126C322.101 291.636 300.964 279.436 295.232 276.123C291.249 273.823 276.04 265.045 272.542 263.023C265.959 259.225 249.847 249.924 249.847 249.924" fill="black"/>
<path d="M249.847 249.924V251.019C250.653 254.163 257.241 268.407 263.627 272.646C270.008 276.886 296.926 288.666 296.926 288.666L335.092 303.984C335.092 303.984 335.789 304.18 336.094 304.12C336.59 304.022 339.854 302.91 340.693 302.376C340.672 302.36 330.814 296.671 326.411 294.126C322.009 291.582 301.084 279.507 295.226 276.123C291.161 273.774 276.111 265.088 272.537 263.023C265.818 259.143 249.847 249.924 249.847 249.924" fill="black"/>
<path d="M249.847 249.924V251.025C250.669 254.234 257.399 268.38 263.922 272.706C270.439 277.038 297.014 288.699 297.014 288.699L335.108 303.989C335.108 303.989 335.795 304.18 336.111 304.12C336.612 304.017 339.838 302.921 340.693 302.376C340.666 302.36 330.912 296.726 326.411 294.127C321.916 291.533 301.21 279.578 295.226 276.123C291.074 273.725 276.187 265.132 272.537 263.023C265.671 259.062 249.847 249.924 249.847 249.924" fill="black"/>
<path d="M249.847 249.924V251.035C250.691 254.31 257.557 268.352 264.21 272.771C270.869 277.185 297.106 288.737 297.106 288.737L335.119 303.995C335.119 303.995 335.8 304.18 336.116 304.12C336.634 304.016 339.816 302.932 340.693 302.376L326.411 294.126C321.823 291.478 301.335 279.648 295.226 276.123C290.987 273.676 276.264 265.175 272.537 263.023C265.529 258.974 249.847 249.924 249.847 249.924Z" fill="black"/>
<path d="M249.847 249.924V251.041C250.708 254.386 257.715 268.32 264.505 272.832C271.3 277.338 297.194 288.775 297.194 288.775L335.13 304C335.13 304 335.806 304.18 336.127 304.115C336.656 304.011 339.8 302.943 340.693 302.376C340.666 302.36 331.098 296.835 326.411 294.126C321.725 291.424 301.46 279.719 295.226 276.123C290.9 273.627 276.34 265.219 272.537 263.023C265.387 258.893 249.847 249.924 249.847 249.924" fill="black"/>
<path d="M249.847 249.924V251.046C250.724 254.457 257.868 268.293 264.799 272.892C271.725 277.491 297.286 288.808 297.286 288.808L335.141 304.006C335.141 304.006 335.806 304.18 336.138 304.115C336.672 304.006 339.783 302.954 340.699 302.376C340.666 302.36 331.19 296.889 326.411 294.127C321.633 291.369 301.58 279.79 295.226 276.123C290.813 273.573 276.416 265.263 272.537 263.023L249.847 249.924Z" fill="black"/>
<path d="M249.847 249.924V251.052C250.74 254.534 258.026 268.265 265.093 272.952C272.155 277.643 297.373 288.847 297.373 288.847L335.152 304.011C335.152 304.011 335.811 304.18 336.149 304.115C336.694 304.006 339.762 302.971 340.699 302.377C340.666 302.36 331.283 296.944 326.411 294.127C321.54 291.315 301.705 279.867 295.226 276.123C290.726 273.524 276.493 265.307 272.537 263.023L249.847 249.924" fill="black"/>
<path d="M249.847 249.924V251.063C250.757 254.61 258.184 268.238 265.387 273.017C272.586 277.796 297.461 288.879 297.461 288.879L335.163 304.017C335.163 304.017 335.816 304.18 336.16 304.109C336.716 304 339.745 302.976 340.699 302.376C340.666 302.36 331.381 296.998 326.411 294.126C321.447 291.26 301.831 279.937 295.226 276.123C290.638 273.475 276.569 265.35 272.537 263.023L249.847 249.924Z" fill="black"/>
<path d="M249.847 249.924V251.068C250.773 254.681 258.342 268.205 265.676 273.077C273.016 277.948 297.553 288.917 297.553 288.917L335.173 304.017C335.173 304.017 335.822 304.18 336.171 304.109C336.737 303.995 339.729 302.992 340.699 302.376C340.666 302.36 331.474 297.053 326.411 294.126C321.349 291.206 301.951 280.008 295.226 276.123C290.551 273.426 276.645 265.394 272.537 263.023C264.81 258.566 249.847 249.924 249.847 249.924" fill="black"/>
<path d="M249.847 249.924V251.073C250.795 254.757 258.5 268.178 265.97 273.137C273.441 278.101 297.64 288.955 297.64 288.955L335.19 304.022C335.19 304.022 335.822 304.18 336.182 304.109C336.759 303.995 339.713 303.003 340.699 302.376C340.661 302.36 331.566 297.107 326.411 294.127C321.257 291.151 302.076 280.079 295.221 276.123C290.458 273.371 276.721 265.437 272.537 263.023C264.668 258.479 249.847 249.924 249.847 249.924" fill="black"/>
<path d="M249.847 249.924V251.084C250.811 254.828 258.658 268.151 266.265 273.202C273.872 278.253 297.733 288.988 297.733 288.988L335.201 304.027C335.201 304.027 335.827 304.18 336.193 304.104C336.776 303.989 339.691 303.014 340.699 302.376C340.661 302.36 331.659 297.162 326.411 294.126C321.164 291.097 302.201 280.15 295.221 276.123L272.537 263.023C264.526 258.397 249.847 249.924 249.847 249.924" fill="black"/>
<path d="M249.847 249.924V251.09C250.828 254.904 258.816 268.123 266.559 273.262C274.302 278.4 297.82 289.026 297.82 289.026L335.212 304.033C335.212 304.033 335.833 304.18 336.203 304.104C336.797 303.984 339.674 303.025 340.699 302.376C340.661 302.36 331.751 297.216 326.411 294.126C321.071 291.042 302.327 280.22 295.221 276.117C290.29 273.273 276.869 265.524 272.537 263.023C264.379 258.315 249.847 249.924 249.847 249.924" fill="black"/>
<path d="M249.847 249.923V251.1C250.844 254.975 258.974 268.096 266.853 273.322C274.727 278.558 297.907 289.059 297.907 289.059L335.223 304.038C335.223 304.038 335.838 304.18 336.214 304.103C336.819 303.984 339.658 303.035 340.699 302.376C340.661 302.354 331.844 297.265 326.411 294.126C320.979 290.988 302.446 280.291 295.221 276.117C290.202 273.218 276.945 265.568 272.537 263.023C264.238 258.233 249.847 249.923 249.847 249.923Z" fill="black"/>
<path d="M249.847 249.924V251.106C250.86 255.051 259.126 268.064 267.142 273.387C275.157 278.706 298 289.097 298 289.097L335.233 304.044C335.233 304.044 335.838 304.18 336.225 304.104C336.841 303.978 339.636 303.047 340.699 302.376C340.661 302.355 331.942 297.325 326.411 294.127C320.881 290.939 302.572 280.362 295.215 276.117C290.115 273.169 277.021 265.612 272.531 263.023L249.847 249.924Z" fill="black"/>
<path d="M249.847 249.924V251.111C250.877 255.127 259.284 268.036 267.436 273.447C275.588 278.858 298.087 289.135 298.087 289.135L335.244 304.049C335.244 304.049 335.844 304.18 336.231 304.098C336.863 303.973 339.62 303.057 340.699 302.376C340.661 302.354 332.035 297.374 326.411 294.132C320.788 290.884 302.697 280.438 295.215 276.117C290.023 273.12 277.097 265.655 272.531 263.023C263.949 258.064 249.847 249.924 249.847 249.924" fill="black"/>
<path d="M249.847 249.924V251.122C250.893 255.198 259.442 268.009 267.73 273.507C276.018 279.011 298.18 289.168 298.18 289.168L335.261 304.049C335.261 304.049 335.849 304.18 336.241 304.098C336.879 303.973 339.604 303.068 340.699 302.376C340.661 302.354 332.127 297.428 326.411 294.126C320.695 290.83 302.817 280.509 295.215 276.117C289.935 273.071 277.174 265.699 272.531 263.023C263.807 257.983 249.847 249.924 249.847 249.924" fill="black"/>
<path d="M249.847 249.924V251.128C250.915 255.275 259.6 267.982 268.025 273.573C276.444 279.163 298.267 289.206 298.267 289.206L335.266 304.055C335.266 304.055 335.855 304.18 336.252 304.098C336.901 303.968 339.587 303.085 340.699 302.382C340.661 302.355 332.22 297.483 326.411 294.132C320.603 290.775 302.942 280.58 295.215 276.117C289.848 273.017 277.25 265.742 272.531 263.023C263.665 257.901 249.847 249.924 249.847 249.924" fill="black"/>
<path d="M249.847 249.924V251.134C250.931 255.351 259.758 267.949 268.319 273.633C276.874 279.316 298.354 289.239 298.354 289.239L335.282 304.06C335.282 304.06 335.855 304.18 336.263 304.098C336.923 303.962 339.565 303.096 340.699 302.382C340.661 302.355 332.313 297.538 326.411 294.132C320.51 290.721 303.068 280.651 295.215 276.118C289.761 272.968 277.326 265.786 272.531 263.023C263.518 257.82 249.847 249.924 249.847 249.924" fill="black"/>
<path d="M249.847 249.924V251.144C250.947 255.422 259.917 267.922 268.608 273.692C277.304 279.463 298.447 289.277 298.447 289.277L335.293 304.065C335.293 304.065 335.86 304.18 336.274 304.093C336.944 303.962 339.549 303.106 340.699 302.382C340.661 302.354 332.411 297.592 326.411 294.132C320.412 290.666 303.193 280.722 295.215 276.117C289.674 272.919 277.397 265.829 272.531 263.023C263.377 257.738 249.847 249.924 249.847 249.924" fill="black"/>
<path d="M249.847 249.924V251.15C250.964 255.498 260.074 267.895 268.902 273.758C277.735 279.615 298.534 289.315 298.534 289.315L335.304 304.071C335.304 304.071 335.866 304.18 336.285 304.093C336.966 303.956 339.533 303.117 340.699 302.382C340.661 302.354 332.503 297.646 326.411 294.132C320.319 290.612 303.313 280.792 295.21 276.117C289.587 272.87 277.473 265.873 272.531 263.023C263.235 257.65 249.847 249.924 249.847 249.924Z" fill="black"/>
<path d="M249.847 249.924V251.155C250.98 255.569 260.233 267.868 269.196 273.818C278.16 279.768 298.627 289.348 298.627 289.348L335.315 304.077C335.315 304.077 335.865 304.18 336.296 304.093C336.988 303.951 339.516 303.129 340.699 302.382C340.655 302.355 332.596 297.701 326.411 294.132C320.227 290.558 303.438 280.864 295.21 276.118C289.499 272.821 277.55 265.922 272.531 263.018C263.088 257.569 249.847 249.924 249.847 249.924" fill="black"/>
<path d="M249.847 249.924V251.166C250.996 255.645 260.385 267.835 269.49 273.878C278.59 279.921 298.714 289.386 298.714 289.386L335.326 304.082C335.326 304.082 335.871 304.18 336.307 304.093C337.01 303.951 339.495 303.139 340.699 302.382C340.655 302.355 332.689 297.756 326.411 294.132C320.134 290.503 303.563 280.934 295.21 276.112C289.412 272.766 277.626 265.96 272.531 263.018C262.946 257.487 249.847 249.924 249.847 249.924" fill="black"/>
<path d="M249.847 249.923V251.171C251.018 255.721 260.543 267.807 269.785 273.943C279.021 280.073 298.801 289.424 298.801 289.424L335.342 304.082C335.342 304.082 335.876 304.18 336.318 304.087C337.032 303.945 339.478 303.15 340.699 302.382C340.655 302.354 332.781 297.81 326.411 294.132C320.041 290.448 303.689 281.01 295.21 276.112C289.325 272.717 277.702 266.004 272.531 263.018C262.805 257.405 249.847 249.923 249.847 249.923" fill="black"/>
<path d="M249.847 249.924V251.177C251.035 255.792 260.701 267.78 270.074 274.003C279.451 280.226 298.894 289.457 298.894 289.457L335.348 304.087C335.348 304.087 335.882 304.18 336.329 304.087C337.048 303.94 339.462 303.161 340.699 302.382C340.655 302.354 332.879 297.864 326.411 294.132C319.943 290.394 303.809 281.081 295.21 276.112C289.238 272.668 277.779 266.053 272.531 263.018C262.657 257.323 249.847 249.924 249.847 249.924" fill="black"/>
<path d="M249.847 249.924V251.182C251.051 255.869 260.859 267.753 270.368 274.063C279.876 280.378 298.981 289.495 298.981 289.495L335.364 304.093C335.364 304.093 335.882 304.18 336.34 304.087C337.07 303.94 339.44 303.177 340.699 302.382C340.655 302.354 332.972 297.919 326.411 294.132C319.851 290.339 303.934 281.152 295.21 276.112C289.151 272.613 277.855 266.091 272.526 263.018C262.516 257.236 249.847 249.924 249.847 249.924Z" fill="black"/>
<path d="M249.847 249.924V251.193C251.067 255.94 261.017 267.726 270.662 274.129C280.307 280.531 299.073 289.528 299.073 289.528L335.375 304.098C335.375 304.098 335.887 304.175 336.35 304.082C337.092 303.935 339.424 303.183 340.699 302.382C340.655 302.355 333.065 297.974 326.411 294.132C319.758 290.285 304.054 281.223 295.21 276.112C289.063 272.565 277.931 266.135 272.526 263.018C262.374 257.155 249.847 249.924 249.847 249.924" fill="black"/>
<path d="M249.847 249.923V251.199C251.084 256.016 261.175 267.693 270.956 274.188C280.737 280.683 299.161 289.565 299.161 289.565L335.386 304.103C335.386 304.103 335.893 304.174 336.356 304.082C337.113 303.929 339.407 303.199 340.699 302.382C340.655 302.354 333.157 298.028 326.411 294.132C319.665 290.236 304.179 281.294 295.205 276.112C288.976 272.515 278.007 266.184 272.526 263.018C262.227 257.073 249.847 249.923 249.847 249.923" fill="black"/>
<path d="M249.847 249.923V251.209C251.1 256.086 261.333 267.666 271.25 274.248C281.162 280.831 299.248 289.604 299.248 289.604L335.397 304.109C335.397 304.109 335.893 304.174 336.367 304.082C337.135 303.929 339.386 303.21 340.699 302.382C340.655 302.354 333.25 298.082 326.411 294.132C319.573 290.176 304.305 281.365 295.205 276.112C288.889 272.466 278.078 266.222 272.526 263.018C262.085 256.991 249.847 249.923 249.847 249.923" fill="black"/>
<path d="M249.847 249.924V251.215C251.122 256.163 261.491 267.639 271.539 274.308C281.593 280.983 299.341 289.637 299.341 289.637L335.408 304.115C335.408 304.115 335.898 304.175 336.378 304.082C337.152 303.924 339.369 303.221 340.699 302.382C340.655 302.355 333.343 298.137 326.411 294.132C319.475 290.127 304.43 281.436 295.205 276.112C288.802 272.412 278.154 266.266 272.526 263.018C261.944 256.904 249.847 249.924 249.847 249.924" fill="black"/>
<path d="M249.847 249.924V251.221C251.138 256.239 261.644 267.611 271.834 274.374C282.023 281.136 299.428 289.675 299.428 289.675L335.419 304.115C335.419 304.115 335.904 304.175 336.389 304.077C337.173 303.924 339.353 303.232 340.699 302.382C340.655 302.355 333.441 298.186 326.411 294.132C319.382 290.072 304.555 281.507 295.205 276.112C288.715 272.363 278.231 266.315 272.526 263.018C261.796 256.822 249.847 249.924 249.847 249.924" fill="black"/>
<path d="M249.847 249.924V251.232C251.154 256.31 261.802 267.579 272.128 274.434C282.454 281.289 299.52 289.713 299.52 289.713L335.43 304.12C335.43 304.12 335.904 304.175 336.4 304.077C337.195 303.919 339.337 303.243 340.699 302.382C340.655 302.355 333.533 298.241 326.411 294.132C319.289 290.018 304.675 281.583 295.205 276.112C288.628 272.314 278.307 266.358 272.526 263.018C261.655 256.741 249.847 249.924 249.847 249.924Z" fill="black"/>
<path d="M249.847 249.924V251.237C251.171 256.386 261.96 267.551 272.422 274.499C282.879 281.441 299.607 289.745 299.607 289.745L335.446 304.125C335.446 304.125 335.909 304.174 336.41 304.076C337.217 303.913 339.315 303.254 340.699 302.382C340.655 302.354 333.626 298.295 326.411 294.132C319.197 289.963 304.8 281.654 295.205 276.112C288.54 272.265 278.383 266.396 272.526 263.018C261.513 256.659 249.847 249.924 249.847 249.924Z" fill="black"/>
<path d="M249.847 249.924V251.242C251.187 256.463 262.118 267.524 272.716 274.559C283.309 281.594 299.695 289.784 299.695 289.784L335.457 304.131C335.457 304.131 335.915 304.175 336.421 304.071C337.239 303.908 339.298 303.265 340.699 302.382C340.65 302.355 333.719 298.35 326.411 294.132C319.099 289.909 304.926 281.725 295.199 276.112C288.448 272.21 278.46 266.445 272.526 263.018C261.371 256.577 249.847 249.924 249.847 249.924" fill="black"/>
<path d="M249.847 249.924V251.254C251.203 256.534 262.276 267.497 273.005 274.619C283.74 281.747 299.787 289.817 299.787 289.817L335.468 304.137C335.468 304.137 335.92 304.175 336.432 304.071C337.26 303.908 339.282 303.276 340.699 302.382C340.65 302.355 333.811 298.404 326.411 294.132C319.006 289.855 305.046 281.796 295.199 276.107C288.361 272.162 278.536 266.489 272.526 263.018C261.224 256.496 249.847 249.924 249.847 249.924" fill="black"/>
<path d="M249.847 249.924V251.259C251.22 256.61 262.434 267.464 273.299 274.679C284.17 281.894 299.874 289.855 299.874 289.855L335.479 304.142C335.479 304.142 335.92 304.175 336.443 304.071C337.282 303.902 339.26 303.292 340.699 302.382C340.65 302.355 333.909 298.459 326.411 294.132C318.913 289.8 305.171 281.866 295.199 276.107C288.279 272.113 278.607 266.533 272.526 263.018C261.083 256.408 249.847 249.924 249.847 249.924Z" fill="black"/>
<path d="M249.847 249.924V251.265C251.242 256.686 262.592 267.437 273.594 274.745C284.601 282.046 299.967 289.893 299.967 289.893L335.489 304.148C335.489 304.148 335.925 304.175 336.454 304.071C337.304 303.897 339.244 303.303 340.699 302.382C340.65 302.355 334.002 298.513 326.411 294.132C318.821 289.746 305.296 281.937 295.199 276.107C288.186 272.058 278.683 266.571 272.526 263.018L249.847 249.924" fill="black"/>
<path d="M249.847 249.924V251.275C251.258 256.757 262.75 267.41 273.888 274.804C285.026 282.199 300.054 289.925 300.054 289.925L335.5 304.147C335.5 304.147 335.931 304.175 336.465 304.066C337.32 303.897 339.228 303.314 340.699 302.382C340.65 302.355 334.095 298.568 326.411 294.132C318.728 289.691 305.416 282.008 295.199 276.107C288.099 272.009 278.759 266.62 272.526 263.018L249.847 249.924" fill="black"/>
<path d="M249.847 249.924V251.281C251.274 256.833 262.903 267.383 274.182 274.864C285.456 282.351 300.141 289.964 300.141 289.964L335.511 304.153C335.511 304.153 335.936 304.175 336.47 304.066C337.342 303.891 339.211 303.325 340.699 302.382C340.65 302.355 334.187 298.622 326.411 294.132C318.63 289.637 305.541 282.079 295.194 276.107C288.012 271.96 278.836 266.663 272.526 263.018L249.847 249.924" fill="black"/>
<path d="M249.847 249.924V251.286C251.291 256.904 263.061 267.35 274.471 274.93C285.887 282.504 300.234 290.002 300.234 290.002L335.522 304.158C335.522 304.158 335.936 304.175 336.487 304.066C337.364 303.886 339.189 303.336 340.699 302.382C340.65 302.355 334.28 298.677 326.411 294.132C318.537 289.588 305.667 282.155 295.194 276.107C287.925 271.911 278.912 266.707 272.526 263.018C260.505 256.081 249.847 249.924 249.847 249.924" fill="black"/>
<path d="M249.847 249.924V251.297C251.307 256.98 263.219 267.323 274.765 274.989C286.312 282.656 300.321 290.034 300.321 290.034L335.538 304.164C335.538 304.164 335.942 304.175 336.492 304.066C337.386 303.886 339.173 303.346 340.699 302.382C340.644 302.355 334.378 298.731 326.411 294.132C318.445 289.533 305.787 282.226 295.194 276.107C287.837 271.862 278.988 266.751 272.52 263.018C260.363 256 249.847 249.924 249.847 249.924" fill="black"/>
<path d="M249.847 249.924V251.303C251.323 257.051 263.377 267.296 275.059 275.05C286.742 282.809 300.414 290.073 300.414 290.073L335.549 304.169C335.549 304.169 335.947 304.175 336.503 304.06C337.402 303.881 339.157 303.357 340.699 302.382C340.644 302.355 334.471 298.786 326.411 294.132C318.352 289.479 305.912 282.297 295.194 276.107C287.75 271.807 279.064 266.794 272.52 263.018C260.222 255.913 249.847 249.924 249.847 249.924" fill="black"/>
<path d="M249.847 249.924V251.308C251.345 257.128 263.535 267.268 275.354 275.115C287.173 282.956 300.501 290.105 300.501 290.105L335.56 304.175C335.56 304.175 335.947 304.175 336.514 304.06C337.424 303.881 339.14 303.368 340.699 302.382C340.644 302.349 334.563 298.84 326.411 294.132C318.26 289.424 306.037 282.368 295.194 276.107C287.663 271.758 279.141 266.838 272.52 263.018C260.08 255.831 249.847 249.924 249.847 249.924" fill="black"/>
<path d="M249.847 249.923V251.313C251.362 257.203 263.693 267.241 275.642 275.174C287.598 283.108 300.588 290.143 300.588 290.143L335.571 304.18C335.571 304.18 335.953 304.174 336.525 304.06C337.446 303.875 339.119 303.384 340.699 302.382C340.644 302.349 334.656 298.894 326.411 294.132C318.162 289.369 306.163 282.438 295.194 276.106C287.576 271.709 279.217 266.881 272.52 263.018L249.847 249.923Z" fill="black"/>
<path d="M249.847 249.924V251.324C251.378 257.275 263.845 267.208 275.937 275.235C288.028 283.261 300.681 290.176 300.681 290.176L335.582 304.186C335.582 304.186 335.958 304.175 336.536 304.055C337.468 303.87 339.102 303.395 340.699 302.382C340.644 302.349 334.748 298.949 326.411 294.132L295.194 276.107C287.489 271.66 279.288 266.925 272.52 263.018L249.847 249.924" fill="black"/>
<path d="M249.847 249.924V251.33C251.394 257.351 264.003 267.181 276.231 275.3C288.459 283.414 300.768 290.214 300.768 290.214L335.593 304.186C335.593 304.186 335.964 304.175 336.547 304.055C337.489 303.87 339.086 303.406 340.699 302.382C340.644 302.349 334.847 299.004 326.411 294.132C317.976 289.261 306.408 282.58 295.188 276.107C287.402 271.606 279.364 266.968 272.52 263.012C259.649 255.58 249.847 249.924 249.847 249.924" fill="black"/>
<path d="M249.847 249.924V251.34C251.411 257.427 264.167 267.154 276.525 275.36C288.889 283.566 300.861 290.252 300.861 290.252L335.604 304.191C335.604 304.191 338.056 304.055 340.699 302.382C340.644 302.349 334.939 299.052 326.411 294.132C317.884 289.206 306.533 282.651 295.188 276.106L249.847 249.924" fill="black"/>
<path d="M164.09 304.19C164.09 304.19 161.616 304.048 158.924 302.348C159.234 302.163 249.847 249.852 249.847 249.852V269.746L164.09 304.19Z" fill="black"/>
<path d="M158.926 302.349C159.231 302.164 249.833 249.858 249.833 249.858C249.838 249.962 249.805 269.638 249.299 269.9C249.168 269.971 164.043 304.174 164.043 304.174C164.043 304.174 161.59 304.033 158.926 302.349" fill="black"/>
<path d="M158.927 302.35C159.226 302.17 249.812 249.87 249.812 249.87C249.823 250.083 249.757 269.53 248.749 270.054C248.482 270.19 163.995 304.159 163.995 304.159C163.995 304.159 161.559 304.018 158.927 302.35Z" fill="black"/>
<path d="M158.929 302.351C159.228 302.171 249.797 249.887 249.797 249.887C249.808 250.192 249.715 269.417 248.201 270.207C247.803 270.414 163.947 304.144 163.947 304.144C163.947 304.144 161.533 303.996 158.929 302.351Z" fill="black"/>
<path d="M158.93 302.353C159.224 302.173 249.776 249.894 249.776 249.894C249.793 250.309 249.673 269.309 247.651 270.356C247.123 270.634 163.899 304.129 163.899 304.129C163.899 304.129 161.502 303.982 158.93 302.353" fill="black"/>
<path d="M158.933 302.353C159.221 302.179 249.763 249.906 249.763 249.906C249.779 250.424 249.627 269.196 247.104 270.509C246.439 270.852 163.848 304.113 163.848 304.113C163.848 304.113 161.477 303.961 158.933 302.353Z" fill="black"/>
<path d="M158.934 302.354C159.222 302.18 249.742 249.918 249.742 249.918C249.764 250.539 249.584 269.088 246.554 270.663C245.759 271.077 163.799 304.098 163.799 304.098C163.799 304.098 161.451 303.946 158.934 302.354" fill="black"/>
<path d="M158.936 302.356C159.219 302.181 249.728 249.93 249.728 249.93C249.75 250.655 249.543 268.98 246.006 270.817C245.08 271.296 163.753 304.083 163.753 304.083C163.753 304.083 161.42 303.925 158.936 302.356" fill="black"/>
<path d="M158.938 302.356C159.221 302.187 249.708 249.941 249.708 249.941C249.735 250.764 249.501 268.871 245.458 270.969C244.395 271.52 163.705 304.067 163.705 304.067C163.705 304.067 161.395 303.909 158.938 302.356" fill="black"/>
<path d="M158.939 302.358C159.217 302.189 249.694 249.954 249.694 249.954C249.726 250.881 249.454 268.759 244.909 271.119C243.716 271.74 163.658 304.053 163.658 304.053C163.658 304.053 161.364 303.889 158.939 302.358" fill="black"/>
<path d="M158.941 302.359C159.214 302.196 249.674 249.967 249.674 249.967C249.706 250.996 249.412 268.651 244.361 271.272C243.031 271.964 163.611 304.038 163.611 304.038C163.611 304.038 161.339 303.874 158.941 302.359" fill="black"/>
<path d="M158.943 302.36C159.216 302.196 249.659 249.978 249.659 249.978C249.698 251.111 249.365 268.543 243.813 271.425C242.352 272.183 163.564 304.021 163.564 304.021C163.564 304.021 161.308 303.858 158.943 302.36" fill="black"/>
<path d="M158.944 302.361C159.211 302.198 249.639 249.985 249.639 249.985C249.682 251.227 249.322 268.43 243.263 271.579C241.672 272.408 163.511 304.007 163.511 304.007C163.511 304.007 161.282 303.838 158.944 302.361" fill="black"/>
<path d="M158.946 302.362C159.208 302.204 249.624 250.002 249.624 250.002C249.668 251.343 249.281 268.322 242.715 271.733C240.987 272.627 163.464 303.992 163.464 303.992C163.464 303.992 161.257 303.823 158.946 302.362" fill="black"/>
<path d="M158.948 302.363C159.21 302.205 249.604 250.008 249.604 250.008C249.653 251.458 249.234 268.213 242.166 271.881C240.308 272.845 163.417 303.976 163.417 303.976C163.417 303.976 161.226 303.801 158.948 302.363" fill="black"/>
<path d="M158.95 302.364C159.206 302.206 249.59 250.02 249.59 250.02C249.639 251.573 249.192 268.106 241.618 272.034C239.629 273.07 163.369 303.96 163.369 303.96C163.369 303.96 161.201 303.786 158.95 302.364Z" fill="black"/>
<path d="M158.952 302.366C159.208 302.213 249.57 250.033 249.57 250.033C249.625 251.684 249.15 267.993 241.07 272.189C238.944 273.295 163.322 303.946 163.322 303.946C163.322 303.946 161.17 303.766 158.952 302.366" fill="black"/>
<path d="M158.954 302.366C159.205 302.214 249.55 250.044 249.55 250.044C249.61 251.799 249.103 267.885 240.521 272.342C238.265 273.514 163.275 303.93 163.275 303.93C163.275 303.93 161.145 303.75 158.954 302.366Z" fill="black"/>
<path d="M158.956 302.367C159.201 302.22 249.536 250.056 249.536 250.056C249.596 251.914 249.062 267.776 239.973 272.495C237.586 273.732 163.228 303.915 163.228 303.915C163.228 303.915 161.114 303.735 158.956 302.367Z" fill="black"/>
<path d="M158.957 302.368C159.202 302.221 249.515 250.068 249.515 250.068C249.58 252.029 249.019 267.663 239.423 272.649C236.9 273.956 163.175 303.899 163.175 303.899C163.175 303.899 161.088 303.714 158.957 302.368Z" fill="black"/>
<path d="M158.959 302.369C159.199 302.227 249.501 250.08 249.501 250.08C249.571 252.145 248.977 267.555 238.875 272.797C236.221 274.176 163.127 303.884 163.127 303.884C163.127 303.884 161.057 303.699 158.959 302.369" fill="black"/>
<path d="M158.961 302.371C159.201 302.229 249.481 250.092 249.481 250.092C249.557 252.261 248.93 267.448 238.327 272.951C235.537 274.401 163.08 303.869 163.08 303.869C163.08 303.869 161.032 303.678 158.961 302.371Z" fill="black"/>
<path d="M158.963 302.371C159.197 302.229 249.466 250.103 249.466 250.103C249.543 252.376 248.889 267.339 237.784 273.104C234.857 274.619 163.033 303.853 163.033 303.853C163.033 303.853 161.006 303.662 158.963 302.371" fill="black"/>
<path d="M158.965 302.373C159.194 302.236 249.447 250.111 249.447 250.111C249.528 252.486 248.847 267.226 237.23 273.258C234.178 274.844 162.986 303.838 162.986 303.838C162.986 303.838 160.976 303.648 158.965 302.373Z" fill="black"/>
<path d="M158.967 302.374C159.196 302.238 249.432 250.123 249.432 250.123C249.514 252.602 248.8 267.118 236.681 273.407C233.494 275.063 162.939 303.823 162.939 303.823C162.939 303.823 160.95 303.627 158.967 302.374Z" fill="black"/>
<path d="M158.969 302.375C159.192 302.238 249.412 250.134 249.412 250.134C249.499 252.717 248.758 267.01 236.133 273.56C232.814 275.287 162.892 303.808 162.892 303.808C162.892 303.808 160.925 303.611 158.969 302.375" fill="black"/>
<path d="M158.971 302.376C159.189 302.245 249.398 250.146 249.398 250.146C249.485 252.833 248.717 266.897 235.584 273.714C232.135 275.506 162.839 303.792 162.839 303.792C162.839 303.792 160.894 303.591 158.971 302.376" fill="black"/>
<path d="M158.972 302.377C159.19 302.247 249.377 250.159 249.377 250.159C249.47 252.949 248.669 266.79 235.041 273.868C231.45 275.732 162.791 303.778 162.791 303.778C162.791 303.778 160.868 303.576 158.972 302.377Z" fill="black"/>
<path d="M158.973 302.379C159.185 302.248 249.362 250.171 249.362 250.171C249.46 253.065 248.626 266.682 234.486 274.022C230.769 275.951 162.743 303.763 162.743 303.763C162.743 303.763 160.836 303.556 158.973 302.379Z" fill="black"/>
<path d="M158.976 302.38C159.188 302.255 249.343 250.183 249.343 250.183C249.446 253.18 248.585 266.569 233.944 274.17C230.091 276.175 162.697 303.748 162.697 303.748C162.697 303.748 160.812 303.54 158.976 302.38Z" fill="black"/>
<path d="M158.978 302.38C159.185 302.255 249.328 250.194 249.328 250.194C249.432 253.289 248.538 266.46 233.395 274.323C229.407 276.394 162.65 303.731 162.65 303.731C162.65 303.731 160.781 303.519 158.978 302.38" fill="black"/>
<path d="M158.979 302.382C159.18 302.262 249.308 250.208 249.308 250.208C249.417 253.406 248.496 266.353 232.84 274.478C228.726 276.614 162.602 303.717 162.602 303.717C162.602 303.717 160.755 303.505 158.979 302.382" fill="black"/>
<path d="M158.979 302.382C159.181 302.263 249.292 250.219 249.292 250.219C249.401 253.521 248.453 266.239 232.297 274.63C228.046 276.837 162.554 303.701 162.554 303.701C162.554 303.701 160.723 303.483 158.979 302.382Z" fill="black"/>
<path d="M158.981 302.384C159.178 302.264 249.272 250.225 249.272 250.225C249.387 253.636 248.406 266.131 231.748 274.784C227.362 277.056 162.507 303.686 162.507 303.686C162.507 303.686 160.698 303.468 158.981 302.384Z" fill="black"/>
<path d="M158.983 302.385C159.174 302.27 249.253 250.237 249.253 250.237C249.372 253.752 248.364 266.023 231.2 274.933C226.682 277.281 162.454 303.671 162.454 303.671C162.454 303.671 160.673 303.453 158.983 302.385" fill="black"/>
<path d="M158.985 302.386C159.176 302.272 249.238 250.25 249.238 250.25C249.358 253.868 248.323 265.916 230.651 275.086C225.998 277.5 162.407 303.656 162.407 303.656C162.407 303.656 160.642 303.432 158.985 302.386" fill="black"/>
<path d="M158.987 302.387C159.173 302.273 249.218 250.262 249.218 250.262C249.349 253.983 248.281 265.802 230.103 275.24C225.319 277.725 162.36 303.635 162.36 303.635C162.36 303.635 160.617 303.417 158.987 302.387Z" fill="black"/>
<path d="M158.989 302.388C159.175 302.279 249.204 250.273 249.204 250.273C249.335 254.099 248.234 265.694 229.554 275.393C224.639 277.944 162.313 303.62 162.313 303.62C162.313 303.62 160.586 303.396 158.989 302.388Z" fill="black"/>
<path d="M158.99 302.39C159.17 302.281 249.183 250.286 249.183 250.286C249.319 254.209 248.191 265.581 229.005 275.548C223.954 278.169 162.265 303.61 162.265 303.61C162.265 303.61 160.56 303.381 158.99 302.39" fill="black"/>
<path d="M158.993 302.391C159.168 302.282 249.17 250.298 249.17 250.298C249.306 254.325 248.151 265.474 228.458 275.696C223.276 278.388 162.219 303.595 162.219 303.595C162.219 303.595 160.53 303.361 158.993 302.391Z" fill="black"/>
<path d="M158.994 302.392C159.169 302.288 249.149 250.31 249.149 250.31C249.29 254.44 248.103 265.365 227.908 275.849C222.596 278.607 162.165 303.574 162.165 303.574C162.165 303.574 160.504 303.345 158.994 302.392Z" fill="black"/>
<path d="M158.996 302.392C159.165 302.288 249.135 250.321 249.135 250.321C249.276 254.555 248.061 265.257 227.36 276.002C221.911 278.83 162.119 303.558 162.119 303.558C162.119 303.558 160.478 303.329 158.996 302.392" fill="black"/>
<path d="M158.998 302.394C159.162 302.296 249.115 250.328 249.115 250.328C249.262 254.671 248.014 265.144 226.811 276.157C221.232 279.05 162.071 303.549 162.071 303.549C162.071 303.549 160.447 303.31 158.998 302.394" fill="black"/>
<path d="M158.999 302.395C159.162 302.297 249.099 250.34 249.099 250.34C249.246 254.787 247.971 265.037 226.262 276.311C220.546 279.275 162.023 303.534 162.023 303.534C162.023 303.534 160.421 303.294 158.999 302.395" fill="black"/>
<path d="M159.001 302.397C159.159 302.298 249.079 250.353 249.079 250.353C249.232 254.897 247.93 264.929 225.714 276.464C219.867 279.494 161.976 303.519 161.976 303.519C161.976 303.519 160.39 303.274 159.001 302.397Z" fill="black"/>
<path d="M159.003 302.396C159.161 302.304 249.065 250.363 249.065 250.363C249.218 255.017 247.888 264.814 225.165 276.611C219.188 279.717 161.929 303.497 161.929 303.497C161.929 303.497 160.365 303.257 159.003 302.396Z" fill="black"/>
<path d="M159.005 302.397C159.157 302.305 249.045 250.375 249.045 250.375C249.203 255.127 247.841 264.706 224.617 276.765C218.503 279.936 161.882 303.487 161.882 303.487C161.882 303.487 160.334 303.242 159.005 302.397Z" fill="black"/>
<path d="M159.007 302.399C159.154 302.312 249.031 250.387 249.031 250.387C249.194 255.243 247.799 264.599 224.069 276.919C217.824 280.161 161.835 303.472 161.835 303.472C161.835 303.472 160.309 303.221 159.007 302.399" fill="black"/>
<path d="M159.008 302.4C159.155 302.313 249.01 250.4 249.01 250.4C249.179 255.358 247.757 264.491 223.519 277.073C217.144 280.38 161.781 303.457 161.781 303.457C161.781 303.457 160.283 303.206 159.008 302.4Z" fill="black"/>
<path d="M159.011 302.402C159.152 302.314 248.991 250.412 248.991 250.412C249.165 255.474 247.71 264.378 222.972 277.222C216.46 280.605 161.735 303.437 161.735 303.437C161.735 303.437 160.253 303.186 159.011 302.402" fill="black"/>
<path d="M159.012 302.402C159.148 302.321 248.976 250.424 248.976 250.424C249.15 255.589 247.668 264.27 222.423 277.375C215.78 280.824 161.687 303.427 161.687 303.427C161.687 303.427 160.227 303.171 159.012 302.402" fill="black"/>
<path d="M159.015 302.403C159.151 302.321 248.962 250.43 248.962 250.43C249.137 255.705 247.627 264.162 221.875 277.528C215.102 281.048 161.641 303.406 161.641 303.406C161.641 303.406 160.197 303.15 159.015 302.403Z" fill="black"/>
<path d="M159.016 302.405C159.146 302.323 248.942 250.443 248.942 250.443C249.121 255.815 247.579 264.049 221.326 277.682C214.416 281.268 161.593 303.391 161.593 303.391C161.593 303.391 160.171 303.135 159.016 302.405" fill="black"/>
<path d="M159.018 302.406C159.148 302.329 248.927 250.454 248.927 250.454C249.107 255.931 247.537 263.941 220.777 277.836C213.737 281.487 161.546 303.375 161.546 303.375C161.546 303.375 160.14 303.114 159.018 302.406Z" fill="black"/>
<path d="M159.019 302.407C159.144 302.33 248.906 250.466 248.906 250.466C249.097 256.046 247.495 263.833 220.228 277.984C213.051 281.711 161.498 303.36 161.498 303.36C161.498 303.36 160.114 303.099 159.019 302.407Z" fill="black"/>
<path d="M159.021 302.408C159.14 302.332 248.892 250.478 248.892 250.478C249.083 256.162 247.448 263.72 219.68 278.138C212.372 281.93 161.451 303.345 161.451 303.345C161.451 303.345 160.083 303.084 159.021 302.408Z" fill="black"/>
<path d="M159.022 302.408C159.142 302.337 248.872 250.49 248.872 250.49C249.068 256.276 247.406 263.611 219.131 278.291C211.693 282.154 161.398 303.329 161.398 303.329C161.398 303.329 160.058 303.062 159.022 302.408" fill="black"/>
<path d="M159.024 302.41C159.139 302.34 248.858 250.503 248.858 250.503C249.054 256.393 247.365 263.504 218.583 278.445C211.008 282.374 161.351 303.315 161.351 303.315C161.351 303.315 160.032 303.048 159.024 302.41Z" fill="black"/>
<path d="M159.026 302.412C159.141 302.346 248.838 250.515 248.838 250.515C249.039 256.509 247.317 263.396 218.034 278.599C210.329 282.599 161.304 303.3 161.304 303.3C161.304 303.3 160.002 303.027 159.026 302.412Z" fill="black"/>
<path d="M159.028 302.412C159.137 302.346 248.818 250.526 248.818 250.526C249.025 256.618 247.276 263.282 217.486 278.752C209.65 282.817 161.257 303.284 161.257 303.284C161.257 303.284 159.976 303.011 159.028 302.412" fill="black"/>
<path d="M159.03 302.415C159.134 302.349 248.803 250.534 248.803 250.534C249.01 256.735 247.234 263.176 216.937 278.902C208.965 283.043 161.21 303.27 161.21 303.27C161.21 303.27 159.946 302.992 159.03 302.415" fill="black"/>
<path d="M159.032 302.415L248.784 250.545C248.996 256.85 247.187 263.067 216.389 279.055C208.286 283.261 161.163 303.254 161.163 303.254C161.163 303.254 159.92 302.976 159.032 302.415Z" fill="black"/>
<path d="M159.034 302.416C159.132 302.357 248.769 250.558 248.769 250.558C248.982 256.966 247.145 262.954 215.841 279.209C207.602 283.486 161.11 303.239 161.11 303.239C161.11 303.239 159.895 302.956 159.034 302.416" fill="black"/>
<path d="M159.035 302.417C159.128 302.362 248.749 250.569 248.749 250.569C248.972 257.08 247.103 262.846 215.291 279.362C206.922 283.705 161.062 303.223 161.062 303.223C161.062 303.223 159.863 302.94 159.035 302.417" fill="black"/>
<path d="M159.037 302.418C159.13 302.363 248.734 250.581 248.734 250.581C248.957 257.196 247.056 262.738 214.743 279.51C206.242 283.929 161.015 303.208 161.015 303.208C161.015 303.208 159.838 302.925 159.037 302.418" fill="black"/>
<path d="M159.039 302.42C159.126 302.365 248.714 250.594 248.714 250.594C248.943 257.307 247.014 262.625 214.194 279.664C205.558 284.149 160.968 303.193 160.968 303.193C160.968 303.193 159.807 302.905 159.039 302.42" fill="black"/>
<path d="M159.041 302.42C159.128 302.371 248.7 250.605 248.7 250.605C248.929 257.421 246.972 262.516 213.646 279.817C204.878 284.367 160.921 303.177 160.921 303.177C160.921 303.177 159.782 302.888 159.041 302.42" fill="black"/>
<path d="M159.042 302.421C159.124 302.372 248.679 250.617 248.679 250.617C248.913 257.537 246.924 262.409 213.097 279.971C204.198 284.592 160.873 303.162 160.873 303.162C160.873 303.162 159.75 302.873 159.042 302.421Z" fill="black"/>
<path d="M159.044 302.423C159.12 302.374 248.665 250.629 248.665 250.629C248.899 257.653 246.883 262.296 212.548 280.125C203.514 284.811 160.826 303.147 160.826 303.147C160.826 303.147 159.725 302.853 159.044 302.423Z" fill="black"/>
<path d="M159.047 302.423L248.646 250.641C248.885 257.768 246.842 262.188 212.001 280.273C202.835 285.036 160.774 303.132 160.774 303.132C160.774 303.132 159.695 302.838 159.047 302.423" fill="black"/>
<path d="M159.048 302.425C159.119 302.381 248.63 250.653 248.63 250.653C248.87 257.884 246.8 262.08 211.451 280.427C202.155 285.255 160.726 303.117 160.726 303.117C160.726 303.117 159.669 302.817 159.048 302.425Z" fill="black"/>
<path d="M159.05 302.426C159.115 302.382 248.61 250.665 248.61 250.665C248.856 257.994 246.752 261.972 210.903 280.581C201.471 285.479 160.679 303.102 160.679 303.102C160.679 303.102 159.644 302.802 159.05 302.426Z" fill="black"/>
<path d="M159.052 302.427L248.591 250.671C248.841 258.109 246.711 261.858 210.355 280.734C200.791 285.698 160.632 303.086 160.632 303.086C160.632 303.086 159.613 302.781 159.052 302.427Z" fill="black"/>
<path d="M159.054 302.429C159.114 302.391 248.576 250.685 248.576 250.685C248.827 258.226 246.664 261.752 209.806 280.889C200.107 285.918 160.585 303.072 160.585 303.072C160.585 303.072 159.588 302.767 159.054 302.429" fill="black"/>
<path d="M159.056 302.429C159.116 302.396 248.557 250.696 248.557 250.696C248.818 258.341 246.622 261.643 209.258 281.041C199.428 286.142 160.538 303.056 160.538 303.056C160.538 303.056 159.557 302.745 159.056 302.429" fill="black"/>
<path d="M159.057 302.431C159.111 302.399 248.541 250.709 248.541 250.709C248.803 258.457 246.579 261.531 208.708 281.191C198.748 286.362 160.49 303.042 160.49 303.042C160.49 303.042 159.531 302.731 159.057 302.431" fill="black"/>
<path d="M159.059 302.431C159.108 302.398 248.521 250.719 248.521 250.719C248.788 258.571 246.538 261.421 208.16 281.343C198.063 286.585 160.437 303.025 160.437 303.025C160.437 303.025 159.5 302.714 159.059 302.431" fill="black"/>
<path d="M159.061 302.432C159.11 302.404 248.507 250.731 248.507 250.731C248.774 258.687 246.491 261.313 207.612 281.496C197.384 286.804 160.39 303.009 160.39 303.009C160.39 303.009 159.475 302.693 159.061 302.432Z" fill="black"/>
<path d="M159.062 302.433C159.106 302.406 248.487 250.743 248.487 250.743C248.76 258.802 246.449 261.2 207.063 281.65C196.705 287.028 160.343 302.994 160.343 302.994C160.343 302.994 159.449 302.678 159.062 302.433Z" fill="black"/>
<path d="M159.063 302.435C159.102 302.407 248.472 250.756 248.472 250.756C248.744 258.918 246.406 261.093 206.514 281.804C196.019 287.248 160.295 302.979 160.295 302.979C160.295 302.979 159.418 302.658 159.063 302.435" fill="black"/>
<path d="M159.065 302.435L248.452 250.767C248.73 259.028 246.359 260.984 205.965 281.952C195.34 287.472 160.248 302.963 160.248 302.963C160.248 302.963 159.392 302.642 159.065 302.435Z" fill="black"/>
<path d="M159.067 302.437C159.1 302.415 248.437 250.779 248.437 250.779C248.721 259.144 246.318 260.871 205.417 282.106C194.661 287.691 160.201 302.949 160.201 302.949C160.201 302.949 159.362 302.627 159.067 302.437Z" fill="black"/>
<path d="M159.069 302.437C159.102 302.421 248.417 250.786 248.417 250.786C248.706 259.259 246.271 260.763 204.869 282.259C193.976 287.915 160.154 302.933 160.154 302.933C160.154 302.933 159.336 302.606 159.069 302.437" fill="black"/>
<path d="M159.071 302.439L248.403 250.799C248.692 259.376 246.229 260.656 204.32 282.414C193.297 288.136 160.107 302.919 160.107 302.919C160.107 302.919 159.311 302.587 159.071 302.439" fill="black"/>
<path d="M159.073 302.44C159.095 302.423 248.383 250.81 248.383 250.81C248.678 259.49 246.187 260.547 203.772 282.567C192.618 288.359 160.054 302.903 160.054 302.903C160.054 302.903 159.28 302.57 159.073 302.44" fill="black"/>
<path d="M159.075 302.441C159.097 302.43 248.369 250.822 248.369 250.822C248.663 259.606 246.14 260.44 203.224 282.715C191.933 288.578 160.007 302.888 160.007 302.888C160.007 302.888 159.255 302.555 159.075 302.441Z" fill="black"/>
<path d="M159.077 302.443C159.093 302.432 248.349 250.835 248.349 250.835C248.649 259.716 246.099 260.327 202.675 282.87C191.254 288.798 159.96 302.873 159.96 302.873C159.96 302.873 159.224 302.535 159.077 302.443Z" fill="black"/>
<path d="M159.079 302.443C159.09 302.438 248.335 250.846 248.335 250.846C248.634 259.832 246.057 260.219 202.127 283.023C190.569 289.022 159.913 302.857 159.913 302.857C159.913 302.857 159.199 302.52 159.079 302.443" fill="black"/>
<path d="M159.08 302.444C159.091 302.439 248.314 250.858 248.314 250.858C248.619 259.947 246.014 260.105 201.577 283.177C189.889 289.241 159.865 302.842 159.865 302.842C159.865 302.842 159.167 302.499 159.08 302.444Z" fill="black"/>
<path d="M159.082 302.446C159.087 302.44 248.299 250.87 248.299 250.87C248.61 260.063 245.967 259.998 201.034 283.325C189.21 289.466 159.818 302.827 159.818 302.827C159.818 302.827 159.142 302.484 159.082 302.446Z" fill="black"/>
<path d="M159.084 302.447C159.089 302.447 248.28 250.878 248.28 250.878C248.596 260.179 245.926 259.89 200.48 283.479C188.525 289.686 159.771 302.812 159.771 302.812C159.771 302.812 159.111 302.464 159.084 302.447Z" fill="black"/>
<path d="M159.085 302.448L159.717 302.797C159.717 302.797 187.845 289.91 199.936 283.633C245.883 259.777 248.58 260.294 248.264 250.889L159.085 302.448Z" fill="black"/>
</g>
<path d="M159.806 297.331C159.806 297.331 158.717 299.276 158.924 302.349C159.904 301.788 249.847 249.847 249.847 249.847L232.611 239.897L159.806 297.331Z" fill="black"/>
<path d="M249.847 249.848C249.847 249.848 340.394 302.126 340.77 302.344C340.922 299.205 339.936 297.44 339.936 297.44L267.082 239.903L249.847 249.848Z" fill="black"/>
<path d="M247.493 146.457C246.403 147.362 245.7 148.424 245.7 148.424L232.611 239.898L249.841 249.848L249.847 249.75V144.877C249.819 144.888 248.855 145.324 247.493 146.457" fill="black"/>
<path d="M246.393 147.536C246.071 147.912 245.684 148.413 245.684 148.413L232.672 239.898L240.028 243.636C238.502 242.431 238.143 241.554 237.963 240.922C237.745 240.132 237.887 239.249 237.979 238.165C238.154 236.116 238.862 230.825 247.183 146.735C247.183 146.735 246.779 147.067 246.393 147.536M265.492 240.868C265.492 240.868 251.613 249.401 252.354 249.145C254.773 248.284 259.759 245.968 262.68 245.428C266.085 244.796 268.488 246.905 270.455 248.24C270.815 248.48 340.198 298.873 340.509 299.091C340.138 297.75 339.828 297.064 339.828 297.064L266.979 239.963L265.492 240.868ZM159.91 296.966C159.91 296.966 159.447 297.914 159.175 299.129C159.36 298.998 232.917 246.197 235.456 244.508C237.265 243.298 237.396 243.249 239.276 243.919L234.361 240.9L232.655 240.001L159.91 296.966Z" fill="black"/>
<path d="M249.051 251.008L249.557 267.965C249.557 267.965 249.634 269.747 249.841 269.747C250.059 269.747 250.075 267.971 250.075 267.971L250.615 251.008H249.051Z" fill="black"/>
</svg>
