<svg width="500" height="500" viewBox="0 0 500 500" fill="none" xmlns="http://www.w3.org/2000/svg">
<path d="M297.943 252.888C300.578 246.626 303.146 240.568 303.216 240.404C303.367 240.059 303.631 239.906 304.047 239.862C304.234 239.845 304.665 239.837 305.101 239.837C305.515 239.837 305.935 239.845 306.082 239.862C306.449 239.915 306.779 240.078 306.928 240.473C307.573 242.224 309.765 247.514 312.014 252.888H297.943ZM315.632 237.582C313.049 231.61 314.019 232.271 308.316 232.074C307.793 232.053 306.649 232.032 304.946 232.027C303.239 232.027 302.791 232.04 301.49 232.065C296.12 232.16 296.962 231.79 295.125 235.658C295.127 235.658 285.896 256.713 281.889 265.466L281.709 265.835C280.957 267.316 281.509 267.368 282.702 267.368L291.07 267.362C291.601 267.362 291.954 267.036 292.091 266.742C292.091 266.742 293.241 264.002 294.822 260.298H315.137C316.655 263.908 317.789 266.589 317.85 266.721C318.026 267.131 318.415 267.381 318.87 267.381L327.492 267.366C328.773 267.366 329.048 267.53 328.559 266.373C327.024 262.732 317.069 240.92 315.632 237.582ZM185.717 232.053H177.248C176.581 232.053 176.392 232.38 176.392 232.956V266.291C176.392 267.209 176.6 267.368 177.53 267.368H185.549C186.45 267.368 186.639 267.156 186.639 266.295V232.975C186.639 232.324 186.435 232.053 185.717 232.053M166.754 232.045H159.826C158.905 232.045 158.737 232.259 158.737 233.128L158.732 259.524C158.732 259.524 144.802 237.828 142.996 235.026C140.902 231.791 140.161 232.003 134.101 232.003C128.03 232.003 126.096 232.045 126.096 232.045C125.17 232.049 125 232.259 125 233.12L125.019 266.291C125.019 267.192 125.218 267.373 126.115 267.373L133.057 267.369C133.996 267.369 134.172 267.157 134.172 266.296L134.164 240.272C134.164 240.272 145.61 258.249 149.468 264.288C151.419 267.346 151.765 267.364 157.378 267.369L166.756 267.364C167.669 267.364 167.865 267.192 167.865 266.283V233.124C167.865 232.25 167.701 232.045 166.754 232.045M373.883 232.045H366.962C366.042 232.045 365.868 232.259 365.868 233.128L365.863 259.524C365.863 259.524 351.954 237.828 350.135 235.026C348.044 231.791 347.307 232.003 341.23 232.003C335.178 232.003 333.229 232.045 333.229 232.045C332.31 232.049 332.135 232.259 332.135 233.12L332.154 266.291C332.156 267.192 332.354 267.373 333.25 267.373L340.195 267.369C341.133 267.369 341.303 267.157 341.303 266.296L341.297 240.272C341.297 240.272 352.743 258.249 356.603 264.288C358.554 267.346 358.892 267.364 364.522 267.369L373.887 267.364C374.803 267.364 375 267.192 375 266.283V233.124C375 232.25 374.834 232.045 373.883 232.045M222.095 245.591C218.756 245.264 209.632 244.399 206.642 244.128C205.548 244.021 205.243 243.384 205.153 242.67C205.111 242.351 205.111 242.089 205.111 241.875C205.111 241.551 205.126 241.379 205.153 241.137C205.252 240.136 205.768 239.726 206.837 239.726L231.567 239.731C232.466 239.735 232.691 239.563 232.691 238.643V233.026C232.691 232.175 232.432 232.028 231.569 232.024H206.455C199.914 232.024 196.224 234.412 195.219 239.348C194.996 240.457 194.95 241.809 194.95 242.765C194.95 243.922 195.023 245.11 195.149 246.026C195.538 248.857 197.257 252.183 204.786 252.924C210.77 253.514 219.378 254.241 222.269 254.491C223.579 254.602 223.812 255.591 223.894 256.147C223.928 256.362 223.945 256.681 223.945 257.103C223.945 257.477 223.945 257.871 223.894 258.415C223.827 259.198 223.47 259.568 222.445 259.568H196.216C195.296 259.568 195.107 259.757 195.107 260.656V266.254C195.107 267.163 195.326 267.344 196.21 267.344H222.107C228.523 267.344 232.722 266.258 233.85 260.687C234.089 259.511 234.133 257.972 234.133 256.895C234.133 255.23 234.02 253.737 233.911 253.178C232.754 247.334 228.35 246.207 222.095 245.591M267.546 245.591C264.203 245.264 255.085 244.399 252.093 244.128C250.999 244.021 250.69 243.384 250.598 242.67C250.568 242.351 250.568 242.089 250.568 241.875C250.568 241.551 250.585 241.379 250.598 241.137C250.703 240.136 251.213 239.726 252.305 239.726L277.027 239.731C277.915 239.735 278.136 239.563 278.136 238.643V233.026C278.136 232.175 277.882 232.028 277.027 232.024H251.906C245.365 232.024 241.673 234.412 240.672 239.348C240.449 240.457 240.401 241.809 240.401 242.765C240.401 243.922 240.472 245.11 240.598 246.026C240.993 248.857 242.707 252.183 250.23 252.924C256.213 253.514 264.833 254.241 267.722 254.491C269.024 254.602 269.264 255.591 269.348 256.147C269.379 256.362 269.394 256.681 269.394 257.103C269.394 257.477 269.394 257.871 269.348 258.415C269.278 259.198 268.923 259.568 267.903 259.568H241.667C240.741 259.568 240.56 259.757 240.558 260.656L240.563 266.254C240.558 267.163 240.781 267.344 241.663 267.344H267.556C273.972 267.344 278.165 266.258 279.299 260.687C279.532 259.511 279.585 257.972 279.585 256.895C279.585 255.23 279.467 253.737 279.354 253.178C278.194 247.334 273.799 246.207 267.546 245.591" fill="black"/>
</svg>
