<svg width="500" height="500" viewBox="0 0 500 500" fill="none" xmlns="http://www.w3.org/2000/svg">
<path d="M250 388.191C233.889 388.191 218.8 385.069 204.734 378.826C190.66 372.575 178.415 364.131 168.001 353.496C157.578 342.869 149.303 330.375 143.177 316.013C137.059 301.66 134 286.263 134 269.823H159.778C159.778 295.469 168.534 317.223 186.045 335.083C203.548 352.952 224.867 361.887 250 361.887C275.133 361.887 296.452 352.952 313.955 335.083C331.466 317.223 340.222 295.469 340.222 269.823C340.222 244.177 331.466 222.419 313.955 204.55C296.452 186.69 275.133 177.76 250 177.76H248.067L268.044 198.145L250 217.215L198.444 164.608L250 112L268.044 131.07L248.067 151.456H250C266.111 151.456 281.204 154.582 295.279 160.833C309.345 167.076 321.589 175.511 332.012 186.137C342.426 196.773 350.697 209.267 356.823 223.62C362.941 237.982 366 253.383 366 269.823C366 286.263 362.941 301.66 356.823 316.013C350.697 330.375 342.426 342.869 332.012 353.496C321.589 364.131 309.345 372.575 295.279 378.826C281.204 385.069 266.111 388.191 250 388.191Z" fill="black"/>
</svg>
