<svg width="500" height="500" viewBox="0 0 500 500" fill="none" xmlns="http://www.w3.org/2000/svg">
<path d="M250.004 180C280.038 180 312.237 186.121 337.864 202.383C354.507 213.031 370 229.166 370 250.195C370 274.75 349.027 292.606 328.936 303.057C305.03 315.433 276.78 320.334 249.996 320.334C219.969 320.334 187.833 314.284 162.199 297.958C145.557 287.31 130 271.175 130 250.195C130 225.528 150.916 207.735 171.064 197.277C195.04 184.908 223.227 180 250.004 180ZM249.75 187.461C221.824 187.461 191.726 192.687 167.495 207.284C152.256 216.402 137.207 230.753 137.207 249.815C137.207 272.205 157.608 287.874 175.845 296.872C198.418 307.895 224.814 312.182 249.75 312.182C277.732 312.182 307.837 306.943 332.067 292.345C347.243 283.163 362.356 268.883 362.356 249.822C362.356 227.382 342.011 211.692 323.718 202.771C301.137 191.727 274.742 187.461 249.75 187.461ZM144.351 234.321L190.323 226.48L204.159 196.445L217.938 226.48L263.903 234.321L217.938 242.234L204.159 272.332L190.323 242.234L144.351 234.321ZM245.413 257.205L265.687 253.644L271.745 240.062L277.802 253.644L298.084 257.205L277.802 260.71L271.745 274.299L265.687 260.71L245.413 257.205ZM287.372 220.993L307.646 217.488L313.704 203.85L319.762 217.488L340.036 220.993L319.762 224.561L313.704 238.151L307.639 224.561L287.372 220.993ZM265.687 285.272L285.898 281.767L291.956 268.122L298.077 281.767L318.351 285.272L298.077 288.84L291.956 302.429L285.898 288.84L265.687 285.272ZM203.397 290.18L223.671 286.675L229.793 273.016L235.843 286.675L256.125 290.18L235.843 293.748L229.793 307.338L223.671 293.748L203.397 290.18ZM305.355 256.648L325.565 253.073L331.623 239.49L337.744 253.073L358.019 256.648L337.744 260.153L331.616 273.721L325.558 260.146L305.355 256.648Z" fill="black"/>
</svg>
