<svg width="500" height="500" viewBox="0 0 500 500" fill="none" xmlns="http://www.w3.org/2000/svg">
<path d="M250.013 365.01L282.469 182.473C313.406 182.473 323.164 185.866 324.573 199.713C324.573 199.713 345.326 191.975 355.794 176.259C314.948 157.332 273.907 156.478 273.907 156.478L249.959 185.646L250.013 185.643L226.065 156.473C226.065 156.473 185.023 157.328 144.183 176.255C154.641 191.971 175.402 199.709 175.402 199.709C176.819 185.861 186.566 182.469 217.295 182.447L250.013 365.01Z" fill="black"/>
<path d="M250 148.053C283.018 147.8 320.811 153.16 359.5 170.023C364.671 160.716 366 156.602 366 156.602C323.708 139.87 284.101 134.144 249.995 134C215.891 134.144 176.287 139.871 134 156.602C134 156.602 135.886 161.669 140.496 170.023C179.177 153.16 216.976 147.8 249.995 148.053H250" />
</svg>
