<svg width="500" height="500" viewBox="0 0 500 500" fill="none" xmlns="http://www.w3.org/2000/svg">
<path d="M242.165 323.577C229.055 315.367 219.402 287.031 219.402 253.367C219.402 252.132 219.407 250.912 219.438 249.697L219.454 249.713C182.996 243.984 156.651 228.284 155.979 209.721L155.869 209.935C146.945 221.023 141.853 233.84 141.853 247.498C141.853 287.687 185.967 320.616 241.926 323.53L242.165 323.577ZM125 250.432C125 205.463 180.963 169 250 169C319.037 169 375 205.463 375 250.432C375 295.402 319.037 331.865 250 331.865C180.963 331.865 125 295.402 125 250.432ZM250 180.749C263.329 180.749 274.661 200.964 278.863 229.175L278.878 229.133C304.806 225.099 322.962 215.784 322.962 204.952C322.962 190.408 290.294 178.638 250 178.638C209.706 178.638 177.038 190.414 177.038 204.952C177.038 215.784 195.189 225.094 221.122 229.133L221.137 229.175C225.339 200.969 236.676 180.749 250 180.749ZM258.069 323.53C314.027 320.616 358.147 287.687 358.147 247.498C358.147 233.84 353.049 221.023 344.131 209.935L344.021 209.721C343.349 228.284 317.009 243.984 280.546 249.713L280.562 249.697C280.588 250.912 280.598 252.132 280.598 253.367C280.598 287.031 270.934 315.367 257.835 323.577L258.069 323.53ZM250 231.271C255.974 231.271 261.775 231.015 267.327 230.525L267.322 230.53C264.559 212.448 257.845 199.687 250 199.687C242.155 199.687 235.446 212.448 232.678 230.53L232.673 230.525C238.225 231.015 244.026 231.271 250 231.271ZM250 298.233C260.034 298.233 268.218 277.351 268.656 251.162L268.708 251.178C262.662 251.736 256.406 252.033 250 252.033C243.594 252.033 237.338 251.741 231.292 251.178L231.349 251.162C231.782 277.356 239.966 298.233 250 298.233Z" fill="black"/>
</svg>
