<svg width="500" height="500" viewBox="0 0 500 500" fill="none" xmlns="http://www.w3.org/2000/svg">
<path d="M250 209.4L197.8 261.6L214.33 277.84L250 242.17L285.67 277.84L302.2 261.6L250 209.4ZM250 134C266.047 134 281.127 137.047 295.24 143.141C309.353 149.227 321.63 157.49 332.07 167.93C342.51 178.37 350.773 190.647 356.859 204.76C362.953 218.873 366 233.953 366 250C366 266.047 362.953 281.127 356.859 295.24C350.773 309.353 342.51 321.63 332.07 332.07C321.63 342.51 309.353 350.777 295.24 356.871C281.127 362.957 266.047 366 250 366C233.953 366 218.873 362.957 204.76 356.871C190.647 350.777 178.37 342.51 167.93 332.07C157.49 321.63 149.227 309.353 143.141 295.24C137.047 281.127 134 266.047 134 250C134 233.953 137.047 218.873 143.141 204.76C149.227 190.647 157.49 178.37 167.93 167.93C178.37 157.49 190.647 149.227 204.76 143.141C218.873 137.047 233.953 134 250 134ZM250 157.2C224.093 157.2 202.15 166.19 184.17 184.17C166.19 202.15 157.2 224.093 157.2 250C157.2 275.907 166.19 297.85 184.17 315.83C202.15 333.81 224.093 342.8 250 342.8C275.907 342.8 297.85 333.81 315.83 315.83C333.81 297.85 342.8 275.907 342.8 250C342.8 224.093 333.81 202.15 315.83 184.17C297.85 166.19 275.907 157.2 250 157.2Z" fill="black" fill-opacity="0.9"/>
</svg>
