<svg width="500" height="500" viewBox="0 0 500 500" fill="none" xmlns="http://www.w3.org/2000/svg">
<path d="M233.722 134.564C235.522 134.307 237.321 134.051 239.14 134.013C246.588 134.141 254.043 134.102 261.491 134C284.566 136.216 306.885 145.598 324.593 160.552C341.981 175.109 354.962 194.873 361.302 216.654C366.484 234.259 367.38 253.088 363.986 271.123C360.662 288.882 353.105 305.847 342.057 320.154C331.529 333.898 317.875 345.253 302.421 353.072C285.687 361.577 266.852 365.842 248.087 365.522C225.582 365.202 203.206 358.151 184.64 345.419C165.792 332.591 150.863 314.096 142.378 292.929C133.712 271.558 131.753 247.574 136.575 225.044C140.546 206.279 149.313 188.558 161.821 174.027C179.913 152.694 205.998 138.355 233.722 134.564ZM215.681 150.088C226.498 174.591 237.462 199.029 248.324 223.513C248.856 224.397 249.125 225.953 250.489 225.658C250.681 225.338 251.065 224.698 251.264 224.371C262.369 199.715 273.141 174.898 284.38 150.299C280.249 148.506 275.843 147.436 271.469 146.437C253.012 142.402 233.472 143.754 215.681 150.088ZM162.609 191.402C162.333 191.985 161.558 192.612 161.988 193.304C179.433 228.553 196.987 263.751 214.407 299.013C214.951 300.115 215.572 301.172 216.226 302.216C216.949 301.601 217.667 300.935 217.993 300.019C224.519 284.988 231.09 269.976 237.635 254.952C238.116 253.844 238.871 252.441 240.312 252.633C246.749 252.576 253.185 252.576 259.621 252.633C261.133 252.39 261.901 253.863 262.394 255.022C268.523 269.125 274.691 283.214 280.839 297.303C281.639 299.026 282.139 301.024 283.746 302.216C285.725 299.199 287.064 295.824 288.742 292.641C305.169 259.39 321.762 226.209 338.151 192.945C337.767 191.504 336.607 190.384 335.813 189.148C326.527 176.134 314.487 165.035 300.5 157.254C288.024 185.414 275.273 213.458 262.74 241.599C262.26 242.591 261.843 243.661 261.037 244.442C259.98 244.91 258.769 244.724 257.649 244.788C251.885 244.718 246.115 244.839 240.351 244.737C238.967 244.833 238.122 243.61 237.661 242.476C224.942 214.047 212.146 185.657 199.453 157.216C184.729 165.554 172.074 177.396 162.609 191.402ZM145.195 254.958C146.118 274.197 152.65 293.07 163.563 308.915C176.416 327.75 195.508 342.236 217.135 349.467C235.663 355.698 255.971 356.505 274.934 351.772C293.41 347.199 310.523 337.414 323.953 323.939C336.78 311.137 346.272 294.992 351.126 277.521C357.056 256.367 356.077 233.35 348.385 212.767C347.168 214.912 346.131 217.154 345.035 219.363C325.566 258.468 306.232 297.643 286.724 336.728C286.001 338.246 284.476 339.655 282.664 339.258C280.743 339.015 279.814 337.164 279.116 335.595C269.996 314.954 260.748 294.364 251.629 273.723C251.206 272.813 250.553 272.026 249.944 271.238C248.273 273.326 247.453 275.9 246.351 278.296C237.648 297.816 229.009 317.368 220.267 336.869C219.178 340.091 214.343 339.995 213.299 336.767C192.715 295.459 172.209 254.113 151.734 212.754C146.47 226.113 144.478 240.651 145.195 254.958Z" fill="black"/>
</svg>
